<svg width="747" height="518" viewBox="0 0 747 518" fill="none" xmlns="http://www.w3.org/2000/svg">
<path d="M746.189 488.604H0V488.977H746.189V488.604Z" fill="#EBEBEB"/>
<path d="M671.421 512.616H621.993V512.99H671.421V512.616Z" fill="#EBEBEB"/>
<path d="M494.306 516.676H481.337V517.049H494.306V516.676Z" fill="#EBEBEB"/>
<path d="M620.5 498.767H591.861V499.14H620.5V498.767Z" fill="#EBEBEB"/>
<path d="M142.746 501.274H78.2903V501.648H142.746V501.274Z" fill="#EBEBEB"/>
<path d="M165.49 501.274H156.043V501.648H165.49V501.274Z" fill="#EBEBEB"/>
<path d="M336.008 507.572H196.203V507.945H336.008V507.572Z" fill="#EBEBEB"/>
<path d="M353.693 422.044H65.5299C63.2724 422.04 61.1088 421.141 59.514 419.543C57.9191 417.945 57.0233 415.78 57.0233 413.523V8.44685C57.043 6.20236 57.9474 4.05625 59.5402 2.47469C61.1329 0.893125 63.2853 0.00384494 65.5299 0H353.693C355.953 0 358.121 0.897796 359.719 2.49588C361.317 4.09397 362.215 6.26144 362.215 8.52147V413.523C362.215 415.783 361.317 417.95 359.719 419.548C358.121 421.146 355.953 422.044 353.693 422.044ZM65.5299 0.298477C63.3714 0.30243 61.3027 1.16266 59.7778 2.69035C58.2529 4.21804 57.3964 6.28835 57.3964 8.44685V413.523C57.3964 415.681 58.2529 417.752 59.7778 419.279C61.3027 420.807 63.3714 421.667 65.5299 421.671H353.693C355.853 421.667 357.923 420.807 359.45 419.28C360.978 417.753 361.837 415.683 361.841 413.523V8.44685C361.837 6.28698 360.978 4.2167 359.45 2.68944C357.923 1.16217 355.853 0.302422 353.693 0.298477H65.5299Z" fill="#EBEBEB"/>
<path d="M676.509 422.044H388.331C386.073 422.04 383.907 421.141 382.31 419.544C380.713 417.947 379.814 415.782 379.81 413.523V8.44685C379.833 6.20099 380.741 4.0549 382.336 2.47375C383.931 0.892604 386.085 0.00380301 388.331 0H676.509C678.751 0.00776707 680.9 0.898783 682.49 2.47992C684.079 4.06107 684.981 6.20493 685.001 8.44685V413.523C685.001 415.778 684.107 417.941 682.516 419.538C680.924 421.135 678.764 422.036 676.509 422.044ZM388.331 0.298477C386.172 0.302422 384.101 1.16217 382.574 2.68944C381.047 4.2167 380.187 6.28698 380.183 8.44685V413.523C380.187 415.683 381.047 417.753 382.574 419.28C384.101 420.807 386.172 421.667 388.331 421.671H676.509C678.669 421.667 680.74 420.807 682.267 419.28C683.794 417.753 684.654 415.683 684.658 413.523V8.44685C684.654 6.28698 683.794 4.2167 682.267 2.68944C680.74 1.16217 678.669 0.302422 676.509 0.298477H388.331Z" fill="#EBEBEB"/>
<path d="M376.545 95.172C392.845 91.3248 402.94 74.9921 399.093 58.6918C395.246 42.3916 378.913 32.2964 362.613 36.1436C346.313 39.9908 336.218 56.3236 340.065 72.6238C343.912 88.924 360.245 99.0192 376.545 95.172Z" fill="#E0E0E0"/>
<path d="M375.502 90.7564C389.364 87.4848 397.949 73.5956 394.677 59.7339C391.405 45.8723 377.516 37.2874 363.655 40.5591C349.793 43.8307 341.208 57.72 344.48 71.5816C347.751 85.4432 361.641 94.0281 375.502 90.7564Z" fill="#F0F0F0"/>
<path d="M368.378 83.3343V65.3064L356.439 72.0669" fill="#F0F0F0"/>
<path d="M368.378 84.6178C368.038 84.6178 367.711 84.4826 367.471 84.2419C367.23 84.0012 367.095 83.6747 367.095 83.3343V67.5151L357.066 73.1862C356.919 73.2695 356.757 73.323 356.589 73.3437C356.422 73.3644 356.252 73.3519 356.089 73.3068C355.926 73.2618 355.774 73.1851 355.64 73.0812C355.507 72.9773 355.396 72.8481 355.313 72.7012C355.229 72.5542 355.176 72.3922 355.155 72.2246C355.134 72.0569 355.147 71.8868 355.192 71.7239C355.237 71.5611 355.314 71.4087 355.418 71.2755C355.521 71.1423 355.651 71.0309 355.798 70.9476L367.737 64.1872C367.932 64.0779 368.152 64.0215 368.376 64.0237C368.6 64.026 368.819 64.0866 369.012 64.1998C369.205 64.3129 369.365 64.4746 369.477 64.6687C369.588 64.8628 369.647 65.0827 369.647 65.3064V83.3343C369.647 83.6722 369.514 83.9964 369.276 84.2366C369.039 84.4769 368.716 84.6139 368.378 84.6178Z" fill="#E0E0E0"/>
<path d="M660.258 216.693V118.525L533.928 118.525V216.693H660.258Z" fill="#E0E0E0"/>
<path d="M656.437 122.584H537.763V212.634H656.437V122.584Z" fill="#EBEBEB"/>
<path d="M560.372 132.299H546.061V152.536H560.372V132.299Z" fill="#F5F5F5"/>
<path d="M579.027 138.269H563.954V159.923H579.027V138.269Z" fill="#F5F5F5"/>
<path d="M561.404 183.681L546.481 181.722L543.666 203.16L558.589 205.119L561.404 183.681Z" fill="#F5F5F5"/>
<path d="M598.846 182.354H583.773V204.008H598.846V182.354Z" fill="#F5F5F5"/>
<path d="M580.833 180.07H565.76V201.724H580.833V180.07Z" fill="#F5F5F5"/>
<path d="M624.739 133.762H615.381V143.119H624.739V133.762Z" fill="#F5F5F5"/>
<path d="M638.341 136.593L629.602 133.249L626.258 141.988L634.997 145.333L638.341 136.593Z" fill="#F5F5F5"/>
<path d="M620.068 134.956C620.064 135.099 620.004 135.236 619.901 135.336C619.798 135.437 619.66 135.493 619.516 135.493C619.437 135.506 619.356 135.502 619.278 135.48C619.201 135.459 619.129 135.421 619.068 135.369C619.007 135.318 618.958 135.253 618.924 135.18C618.891 135.108 618.873 135.028 618.873 134.948C618.873 134.868 618.891 134.789 618.924 134.716C618.958 134.643 619.007 134.579 619.068 134.527C619.129 134.475 619.201 134.437 619.278 134.416C619.356 134.395 619.437 134.39 619.516 134.403C619.662 134.403 619.803 134.462 619.906 134.565C620.01 134.669 620.068 134.809 620.068 134.956Z" fill="#E0E0E0"/>
<path d="M630.828 134.956C630.828 135.065 630.795 135.172 630.735 135.263C630.674 135.353 630.588 135.424 630.487 135.466C630.386 135.508 630.275 135.519 630.168 135.497C630.061 135.476 629.962 135.423 629.885 135.346C629.808 135.269 629.755 135.171 629.734 135.063C629.713 134.956 629.723 134.845 629.765 134.744C629.807 134.644 629.878 134.557 629.969 134.497C630.059 134.436 630.166 134.404 630.275 134.404C630.422 134.404 630.562 134.462 630.666 134.565C630.769 134.669 630.828 134.809 630.828 134.956Z" fill="#E0E0E0"/>
<path d="M572.028 139.866C572.007 139.995 571.94 140.112 571.841 140.196C571.741 140.281 571.614 140.327 571.484 140.327C571.353 140.327 571.226 140.281 571.126 140.196C571.027 140.112 570.96 139.995 570.939 139.866C570.926 139.786 570.93 139.705 570.951 139.628C570.973 139.551 571.01 139.479 571.062 139.418C571.114 139.357 571.179 139.308 571.251 139.274C571.324 139.24 571.403 139.223 571.484 139.223C571.564 139.223 571.643 139.24 571.716 139.274C571.788 139.308 571.853 139.357 571.905 139.418C571.957 139.479 571.994 139.551 572.016 139.628C572.037 139.705 572.041 139.786 572.028 139.866Z" fill="#E0E0E0"/>
<path d="M553.762 133.762C553.775 133.841 553.771 133.922 553.749 133.999C553.728 134.076 553.69 134.148 553.638 134.209C553.586 134.27 553.522 134.32 553.449 134.353C553.376 134.387 553.297 134.404 553.217 134.404C553.137 134.404 553.058 134.387 552.985 134.353C552.912 134.32 552.848 134.27 552.796 134.209C552.744 134.148 552.706 134.076 552.685 133.999C552.663 133.922 552.659 133.841 552.672 133.762C552.694 133.633 552.76 133.516 552.86 133.431C552.96 133.346 553.086 133.3 553.217 133.3C553.348 133.3 553.474 133.346 553.574 133.431C553.674 133.516 553.74 133.633 553.762 133.762Z" fill="#E0E0E0"/>
<path d="M548.628 183.906C548.628 183.977 548.614 184.049 548.586 184.115C548.558 184.181 548.517 184.241 548.465 184.291C548.414 184.341 548.353 184.38 548.286 184.406C548.219 184.432 548.148 184.445 548.076 184.443C547.997 184.456 547.916 184.452 547.839 184.43C547.761 184.409 547.69 184.371 547.628 184.319C547.567 184.268 547.518 184.203 547.484 184.13C547.451 184.058 547.433 183.978 547.433 183.898C547.433 183.818 547.451 183.739 547.484 183.666C547.518 183.593 547.567 183.529 547.628 183.477C547.69 183.425 547.761 183.387 547.839 183.366C547.916 183.345 547.997 183.34 548.076 183.353C548.149 183.351 548.222 183.364 548.29 183.391C548.358 183.418 548.419 183.459 548.471 183.511C548.523 183.562 548.563 183.624 548.59 183.692C548.617 183.76 548.63 183.833 548.628 183.906Z" fill="#E0E0E0"/>
<path d="M573.849 181.309C573.849 181.418 573.817 181.525 573.756 181.616C573.695 181.706 573.609 181.777 573.508 181.819C573.407 181.861 573.296 181.872 573.189 181.85C573.082 181.829 572.984 181.776 572.906 181.699C572.829 181.622 572.777 181.524 572.755 181.416C572.734 181.309 572.745 181.198 572.787 181.097C572.829 180.997 572.899 180.91 572.99 180.85C573.081 180.789 573.188 180.757 573.297 180.757C573.443 180.757 573.584 180.815 573.687 180.918C573.791 181.022 573.849 181.162 573.849 181.309Z" fill="#E0E0E0"/>
<path d="M591.847 183.353C591.847 183.463 591.814 183.569 591.753 183.66C591.693 183.751 591.607 183.822 591.506 183.864C591.405 183.905 591.294 183.916 591.187 183.895C591.08 183.874 590.981 183.821 590.904 183.744C590.827 183.667 590.774 183.568 590.753 183.461C590.731 183.354 590.742 183.243 590.784 183.142C590.826 183.041 590.897 182.955 590.988 182.894C591.078 182.834 591.185 182.801 591.294 182.801C591.441 182.801 591.581 182.859 591.685 182.963C591.788 183.067 591.847 183.207 591.847 183.353Z" fill="#E0E0E0"/>
<path d="M648.975 163.027H618.963V181.846H648.975V163.027Z" fill="#E0E0E0"/>
<path d="M638.707 184.443H612.501V205.127H638.707V184.443Z" fill="#E0E0E0"/>
<path d="M109.435 129.956H100.078V139.314H109.435V129.956Z" fill="#F5F5F5"/>
<path d="M104.765 131.135C104.768 131.245 104.738 131.353 104.679 131.446C104.62 131.539 104.535 131.612 104.435 131.656C104.334 131.7 104.223 131.713 104.114 131.693C104.006 131.674 103.907 131.622 103.828 131.546C103.749 131.469 103.695 131.371 103.673 131.263C103.65 131.156 103.66 131.044 103.701 130.942C103.743 130.841 103.813 130.753 103.904 130.692C103.996 130.631 104.103 130.598 104.213 130.598C104.357 130.598 104.495 130.654 104.598 130.754C104.701 130.855 104.761 130.991 104.765 131.135Z" fill="#E0E0E0"/>
</svg>
