<svg width="18" height="18" viewBox="0 0 18 18" fill="none" xmlns="http://www.w3.org/2000/svg">
<g clip-path="url(#clip0_27601_387)">
<path d="M15.75 6C16.5784 6 17.25 6.67157 17.25 7.5V10.5C17.25 11.3284 16.5784 12 15.75 12H14.9536C14.5845 14.9597 12.0597 17.25 9 17.25V15.75C11.4853 15.75 13.5 13.7353 13.5 11.25V6.75C13.5 4.26472 11.4853 2.25 9 2.25C6.51472 2.25 4.5 4.26472 4.5 6.75V12H2.25C1.42157 12 0.75 11.3284 0.75 10.5V7.5C0.75 6.67157 1.42157 6 2.25 6H3.04642C3.41549 3.04027 5.94029 0.75 9 0.75C12.0597 0.75 14.5845 3.04027 14.9536 6H15.75ZM5.81958 11.8387L6.61469 10.5665C7.30621 10.9997 8.12385 11.25 9 11.25C9.87615 11.25 10.6938 10.9997 11.3853 10.5665L12.1805 11.8387C11.2584 12.4162 10.1682 12.75 9 12.75C7.8318 12.75 6.74161 12.4162 5.81958 11.8387Z" fill="white"/>
</g>
<defs>
<clipPath id="clip0_27601_387">
<rect width="18" height="18" fill="white"/>
</clipPath>
</defs>
</svg>
