<svg width="19" height="19" viewBox="0 0 19 19" fill="none" xmlns="http://www.w3.org/2000/svg">
<g clip-path="url(#clip0_27601_352)">
<path d="M15.8722 6.5C16.7006 6.5 17.3722 7.17157 17.3722 8V11C17.3722 11.8284 16.7006 12.5 15.8722 12.5H15.0758C14.7067 15.4597 12.1819 17.75 9.12219 17.75V16.25C11.6075 16.25 13.6222 14.2353 13.6222 11.75V7.25C13.6222 4.76472 11.6075 2.75 9.12219 2.75C6.63691 2.75 4.62219 4.76472 4.62219 7.25V12.5H2.37219C1.54376 12.5 0.872192 11.8284 0.872192 11V8C0.872192 7.17157 1.54376 6.5 2.37219 6.5H3.16861C3.53768 3.54027 6.06248 1.25 9.12219 1.25C12.1819 1.25 14.7067 3.54027 15.0758 6.5H15.8722ZM5.94177 12.3387L6.73688 11.0665C7.4284 11.4997 8.24604 11.75 9.12219 11.75C9.99834 11.75 10.816 11.4997 11.5075 11.0665L12.3026 12.3387C11.3806 12.9162 10.2904 13.25 9.12219 13.25C7.95399 13.25 6.86381 12.9162 5.94177 12.3387Z" fill="white"/>
</g>
<defs>
<clipPath id="clip0_27601_352">
<rect width="18" height="18" fill="white" transform="translate(0.122192 0.5)"/>
</clipPath>
</defs>
</svg>
