<svg width="508" height="343" viewBox="0 0 508 343" fill="none" xmlns="http://www.w3.org/2000/svg">
<path d="M82.2696 116.879C82.6461 116.646 83.0798 116.523 83.5221 116.523C83.9645 116.523 84.3982 116.646 84.7747 116.879C84.9894 117.006 85.2041 117.133 85.4189 117.244L86.0869 117.586C86.4884 117.768 86.8317 118.058 87.0788 118.422C87.3258 118.787 87.467 119.214 87.4865 119.654L87.582 122.74L97.6261 122.43L97.5307 119.344C97.5201 118.902 97.6328 118.465 97.8561 118.083C98.0794 117.701 98.4045 117.389 98.7951 117.181C99.2331 116.939 99.6579 116.673 100.068 116.386C100.427 116.132 100.85 115.983 101.29 115.955C101.729 115.927 102.168 116.021 102.557 116.226L105.269 117.682L110.04 108.815L107.312 107.335C106.924 107.125 106.601 106.81 106.38 106.427C106.16 106.044 106.05 105.606 106.064 105.164C106.064 104.663 106.064 104.162 106.016 103.669C105.973 103.229 106.054 102.785 106.249 102.387C106.445 101.99 106.747 101.654 107.122 101.419L109.746 99.8282L104.442 91.2871L101.809 92.9174C101.434 93.148 101.001 93.2702 100.561 93.2702C100.12 93.2702 99.6877 93.148 99.3121 92.9174C99.1053 92.7901 98.8906 92.6629 98.6679 92.5436L98.0078 92.2175C97.604 92.0346 97.2591 91.7427 97.0118 91.3747C96.7646 91.0066 96.6248 90.577 96.6082 90.1339L96.5207 87.0483L86.4686 87.3585L86.572 90.4361C86.584 90.8798 86.4721 91.3181 86.2487 91.7016C86.0253 92.0851 85.6994 92.3988 85.3075 92.6072C84.8695 92.8495 84.4448 93.1149 84.0351 93.4025C83.6744 93.6576 83.25 93.8075 82.8091 93.8356C82.3682 93.8637 81.9281 93.7688 81.538 93.5615L78.8261 92.1142L74.0546 100.973L76.7664 102.421C77.1553 102.631 77.478 102.946 77.6985 103.329C77.919 103.713 78.0285 104.15 78.015 104.592C78.015 105.09 78.0309 105.591 78.0627 106.095C78.1055 106.536 78.0247 106.98 77.8295 107.377C77.6342 107.775 77.3322 108.11 76.9573 108.345L74.3409 109.936L79.6532 118.469L82.2696 116.879ZM84.7906 100.973C85.5594 99.5376 86.7368 98.3622 88.1739 97.5959C89.611 96.8296 91.2432 96.5068 92.8638 96.6685C94.4844 96.8301 96.0206 97.4689 97.278 98.504C98.5354 99.5391 99.4575 100.924 99.9275 102.483C100.398 104.043 100.394 105.706 99.9185 107.264C99.4426 108.821 98.5153 110.203 97.254 111.233C95.9927 112.264 94.4541 112.897 92.8329 113.052C91.2117 113.208 89.5808 112.879 88.1466 112.107C86.2299 111.071 84.8011 109.318 84.1723 107.232C83.5435 105.146 83.7658 102.896 84.7906 100.973Z" fill="#DBDBDB"/>
<path d="M410.554 134.43C410.821 134.595 411.038 134.831 411.178 135.112C411.319 135.393 411.378 135.708 411.349 136.02C411.349 136.187 411.349 136.362 411.349 136.537C411.349 136.712 411.349 136.887 411.349 137.062C411.371 137.368 411.309 137.673 411.169 137.946C411.028 138.218 410.815 138.446 410.554 138.605L408.685 139.687L412.2 145.786L414.077 144.705C414.346 144.552 414.652 144.478 414.96 144.489C415.269 144.5 415.569 144.597 415.826 144.768C416.119 144.958 416.422 145.134 416.733 145.293C417.01 145.431 417.244 145.643 417.408 145.905C417.572 146.168 417.66 146.471 417.663 146.78V148.935H424.701V146.78C424.704 146.471 424.793 146.168 424.957 145.905C425.121 145.643 425.355 145.431 425.632 145.293C425.943 145.134 426.245 144.958 426.538 144.768C426.796 144.597 427.095 144.5 427.404 144.489C427.713 144.478 428.019 144.552 428.288 144.705L430.165 145.786L433.68 139.687L431.803 138.605C431.541 138.444 431.329 138.214 431.188 137.941C431.048 137.668 430.986 137.361 431.008 137.054C431.008 136.887 431.008 136.712 431.008 136.537C431.008 136.362 431.008 136.187 431.008 136.02C430.978 135.707 431.037 135.392 431.177 135.111C431.318 134.83 431.535 134.594 431.803 134.43L433.672 133.356L430.157 127.257L428.288 128.33C428.019 128.485 427.712 128.562 427.401 128.552C427.091 128.543 426.789 128.446 426.53 128.275C426.238 128.083 425.936 127.907 425.624 127.75C425.347 127.612 425.113 127.4 424.949 127.137C424.785 126.875 424.696 126.572 424.693 126.263V124.107H417.655V126.263C417.653 126.572 417.564 126.875 417.4 127.137C417.236 127.4 417.002 127.612 416.725 127.75C416.414 127.909 416.111 128.084 415.818 128.275C415.56 128.446 415.258 128.543 414.947 128.552C414.637 128.562 414.33 128.485 414.061 128.33L412.192 127.257L408.677 133.356L410.554 134.43ZM421.178 130.732C422.321 130.73 423.438 131.068 424.388 131.701C425.339 132.335 426.08 133.236 426.518 134.291C426.956 135.345 427.072 136.507 426.85 137.627C426.628 138.748 426.079 139.777 425.272 140.585C424.465 141.394 423.436 141.944 422.316 142.168C421.195 142.391 420.034 142.277 418.979 141.84C417.923 141.404 417.021 140.664 416.386 139.714C415.752 138.764 415.413 137.648 415.413 136.506C415.413 134.976 416.02 133.508 417.101 132.426C418.182 131.343 419.649 130.734 421.178 130.732Z" fill="#DBDBDB"/>
<path d="M445.752 194.575C445.752 199.999 447.36 205.3 450.373 209.809C453.386 214.319 457.668 217.833 462.679 219.909C467.689 221.984 473.203 222.527 478.522 221.469C483.841 220.411 488.727 217.8 492.562 213.965C496.396 210.13 499.008 205.244 500.066 199.925C501.124 194.606 500.581 189.092 498.506 184.082C496.43 179.072 492.916 174.789 488.406 171.776C483.897 168.763 478.596 167.155 473.172 167.155C469.571 167.155 466.006 167.864 462.679 169.242C459.352 170.62 456.329 172.64 453.783 175.186C451.237 177.732 449.217 180.755 447.839 184.082C446.461 187.409 445.752 190.974 445.752 194.575ZM460.369 194.575C460.367 192.041 461.117 189.563 462.524 187.455C463.932 185.347 465.932 183.703 468.274 182.733C470.615 181.762 473.192 181.507 475.678 182.002C478.164 182.496 480.447 183.716 482.239 185.508C484.032 187.3 485.252 189.584 485.746 192.07C486.24 194.556 485.986 197.133 485.015 199.474C484.045 201.815 482.401 203.816 480.293 205.223C478.185 206.63 475.707 207.381 473.172 207.379C469.777 207.379 466.52 206.03 464.119 203.629C461.718 201.228 460.369 197.971 460.369 194.575Z" fill="#EBEBEB"/>
<path d="M467.9 168.292H478.445L477.864 160.825H468.488L467.9 168.292Z" fill="#EBEBEB"/>
<path d="M487.972 171.847L495.432 179.307L500.299 173.612L493.666 166.98L487.972 171.847Z" fill="#EBEBEB"/>
<path d="M499.655 188.547V199.093L507.122 198.512V189.136L499.655 188.547Z" fill="#EBEBEB"/>
<path d="M496.1 208.62L488.648 216.079L494.334 220.946L500.967 214.314L496.1 208.62Z" fill="#EBEBEB"/>
<path d="M479.399 220.302H468.854L469.435 227.77H478.811L479.399 220.302Z" fill="#EBEBEB"/>
<path d="M459.327 216.747L451.867 209.296L447 214.982L453.633 221.615L459.327 216.747Z" fill="#EBEBEB"/>
<path d="M447.645 200.047V189.502L440.177 190.082V199.458L447.645 200.047Z" fill="#EBEBEB"/>
<path d="M451.199 179.975L458.651 172.515L452.965 167.648L446.332 174.281L451.199 179.975Z" fill="#EBEBEB"/>
<path d="M5.57471 62.4509C5.57471 67.8742 7.1829 73.1757 10.1959 77.685C13.2089 82.1943 17.4914 85.7088 22.5019 87.7842C27.5124 89.8596 33.0257 90.4026 38.3448 89.3446C43.6639 88.2866 48.5498 85.675 52.3846 81.8402C56.2195 78.0053 58.831 73.1195 59.889 67.8004C60.9471 62.4813 60.4041 56.9679 58.3287 51.9575C56.2533 46.947 52.7387 42.6645 48.2294 39.6515C43.7201 36.6385 38.4186 35.0303 32.9953 35.0303C25.7229 35.0303 18.7484 37.9192 13.606 43.0616C8.46366 48.2039 5.57471 55.1785 5.57471 62.4509ZM20.1916 62.4509C20.19 59.9163 20.9403 57.4382 22.3474 55.3301C23.7546 53.222 25.7554 51.5787 28.0968 50.608C30.4381 49.6374 33.0148 49.383 35.5007 49.8771C37.9867 50.3711 40.2703 51.5915 42.0625 53.3837C43.8547 55.1759 45.0751 57.4595 45.5691 59.9454C46.0632 62.4314 45.8088 65.0081 44.8382 67.3494C43.8675 69.6908 42.2242 71.6916 40.1161 73.0987C38.008 74.5059 35.5299 75.2562 32.9953 75.2546C29.5996 75.2546 26.3429 73.9056 23.9417 71.5045C21.5406 69.1033 20.1916 65.8466 20.1916 62.4509Z" fill="#EBEBEB"/>
<path d="M27.7228 36.1676H38.2679L37.6874 28.708H28.3113L27.7228 36.1676Z" fill="#EBEBEB"/>
<path d="M47.7952 39.7225L55.2548 47.182L60.1218 41.4879L53.4893 34.8555L47.7952 39.7225Z" fill="#EBEBEB"/>
<path d="M59.4775 56.4229V66.968L66.945 66.3875V57.0113L59.4775 56.4229Z" fill="#EBEBEB"/>
<path d="M55.9226 76.4951L48.471 83.9547L54.1571 88.8217L60.7896 82.1892L55.9226 76.4951Z" fill="#EBEBEB"/>
<path d="M39.2223 88.1777H28.6771L29.2577 95.6452H38.6338L39.2223 88.1777Z" fill="#EBEBEB"/>
<path d="M19.1499 84.623L11.6904 77.1714L6.82336 82.8575L13.4558 89.49L19.1499 84.623Z" fill="#EBEBEB"/>
<path d="M7.46751 67.9226V57.3774L0 57.958V67.3341L7.46751 67.9226Z" fill="#EBEBEB"/>
<path d="M11.0224 47.85L18.474 40.3904L12.7879 35.5234L6.1554 42.1559L11.0224 47.85Z" fill="#EBEBEB"/>
<path d="M294.382 94.508C289.61 94.5876 277.482 94.7864 272.838 94.8341L265.577 94.8739H265.22V94.508V85.6091V85.2114H265.617L280.019 85.2671C283.606 85.2671 290.835 85.3705 294.422 85.4261H294.612V85.6091L294.429 94.508H294.382ZM294.382 94.508L294.199 85.6091L294.382 85.792C290.787 85.8476 283.574 85.9192 279.98 85.951L265.577 86.0067L265.975 85.6091V94.508L265.609 94.1422H272.767C277.331 94.1979 289.706 94.3967 294.429 94.4762L294.382 94.508Z" fill="#EBEBEB"/>
<path d="M278.318 105.745C273.546 105.824 261.41 106.023 256.774 106.071L249.513 106.111H249.147V105.745V96.8459V96.4482H249.545L263.947 96.5039C267.526 96.5039 274.763 96.6073 278.349 96.663H278.532V96.8459L278.318 105.745ZM278.318 105.745L278.127 96.8459L278.318 97.0288C274.723 97.0844 267.502 97.156 263.915 97.1878L249.513 97.2435L249.911 96.8459L249.871 105.745L249.513 105.379H256.671C261.235 105.435 273.618 105.634 278.341 105.713L278.318 105.745Z" fill="#EBEBEB"/>
<path d="M310.446 96.8301H281.642V105.729H310.446V96.8301Z" fill="#EBEBEB"/>
<path d="M189.145 170.161C184.373 170.24 172.238 170.439 167.601 170.487L160.34 170.527H159.975V170.161V161.262V160.864H160.372L174.774 160.92C178.361 160.92 185.59 161.023 189.177 161.079H189.36V161.262L189.145 170.161ZM189.145 170.161L188.954 161.262L189.145 161.445C185.55 161.5 178.329 161.572 174.743 161.604L160.34 161.66L160.738 161.262L160.659 170.161L160.301 169.795L167.458 169.835C172.023 169.883 184.405 170.081 189.129 170.161H189.145Z" fill="#EBEBEB"/>
<path d="M488.481 21.9324C483.71 22.0119 471.582 22.2108 466.938 22.2664H459.677H459.319V21.9006V13.0016V12.604H459.717L474.119 12.6597C477.706 12.6597 484.935 12.771 488.521 12.8187H488.712V13.0016L488.529 21.9006L488.481 21.9324ZM488.481 21.9324L488.298 13.0334L488.481 13.2243C484.887 13.272 477.674 13.3515 474.079 13.3754L459.677 13.4311L460.075 13.0334V21.9324L459.709 21.5745H466.866C471.431 21.6223 483.805 21.8211 488.529 21.9006L488.481 21.9324Z" fill="#EBEBEB"/>
<path d="M504.545 24.2544H475.741V33.1534H504.545V24.2544Z" fill="#EBEBEB"/>
<path d="M31.381 21.9402C26.6094 22.0277 14.4737 22.2265 9.83737 22.2742H2.57664H2.21082V21.9084V13.0174V12.6118H2.60845L16.9788 12.6993C20.5575 12.6993 27.7944 12.8106 31.381 12.8583H31.5639V13.0413L31.381 21.9323V21.9402ZM31.381 21.9402L31.1901 13.0492L31.381 13.2321C27.7864 13.2798 20.5654 13.3594 16.9788 13.3912L2.57664 13.4389L2.97427 13.0492V21.9402L2.6164 21.5824H9.77375C14.3385 21.6301 26.7208 21.8368 31.4446 21.9084L31.381 21.9402Z" fill="#EBEBEB"/>
<path d="M18.6407 288.758C23.4123 288.679 35.6911 288.48 40.3036 288.424H47.461L47.0952 288.79V279.891L47.4928 280.289L33.0906 280.233C29.504 280.233 22.2751 280.122 18.6885 280.074L18.8714 279.891L18.6885 288.79L18.6407 288.758ZM18.6407 288.758L18.4578 279.859V279.676H18.6487C22.2433 279.637 29.4563 279.549 33.0509 279.525L47.453 279.47H47.8507V279.867V288.766V289.132H47.4928H40.2321C35.6434 289.084 23.4282 288.886 18.6885 288.806L18.6407 288.758Z" fill="#EBEBEB"/>
<path d="M2.56863 299.972H31.373V291.073H2.56863V299.972Z" fill="#EBEBEB"/>
<path d="M475.741 288.766C480.513 288.687 492.791 288.488 497.412 288.432H504.569L504.211 288.798V279.899L504.609 280.297L490.207 280.241C486.62 280.241 479.391 280.13 475.805 280.082L475.996 279.899L475.805 288.798L475.741 288.766ZM475.741 288.766L475.558 279.907V279.724H475.741C479.336 279.677 486.557 279.589 490.143 279.565L504.545 279.51H504.943V279.907V288.806V289.172H504.577L497.316 289.132C492.728 289.084 480.513 288.886 475.773 288.806L475.741 288.766Z" fill="#EBEBEB"/>
<path d="M487.925 300.242H398.752V342.049H487.925V300.242Z" fill="#EBEBEB"/>
<path opacity="0.1" d="M487.932 300.242H458.404V342.049H487.932V300.242Z" fill="#020100"/>
<path opacity="0.1" d="M487.925 300.242H398.752V309.427L487.925 304.839V300.242Z" fill="#020100"/>
<path d="M491.789 292.313H394.879V302.795H491.789V292.313Z" fill="#EBEBEB"/>
<path opacity="0.1" d="M491.797 292.313H459.709V302.795H491.797V292.313Z" fill="#020100"/>
<path d="M438.912 308.449H418.244V314.859H438.912V308.449Z" fill="#A6A6A6"/>
<path d="M448.193 244.582H390.847V286.15H448.193V244.582Z" fill="#EBEBEB"/>
<path d="M411.11 240.271H390.847V244.582H412.271L411.11 240.271Z" fill="#EBEBEB"/>
<g opacity="0.3">
<path d="M448.193 244.582H390.847V286.15H448.193V244.582Z" fill="black"/>
<path d="M411.11 240.271H390.847V244.582H412.271L411.11 240.271Z" fill="black"/>
</g>
<path d="M409.408 241.957H392.835V244.462H409.408V241.957Z" fill="white"/>
<path d="M448.193 286.15H390.847L390.434 247.158H447.78L448.193 286.15Z" fill="#EBEBEB"/>
<path d="M410.649 243.206H390.386L390.433 247.158H411.858L410.649 243.206Z" fill="#EBEBEB"/>
<g opacity="0.1">
<path d="M448.193 286.15H390.847L390.433 247.158H447.78L448.193 286.15Z" fill="black"/>
<path d="M410.649 243.206H390.386L390.433 247.158H411.858L410.649 243.206Z" fill="black"/>
</g>
<path d="M440.805 247.715H383.459V289.283H440.805V247.715Z" fill="#EBEBEB"/>
<path d="M403.722 243.405H383.459V247.715H404.883L403.722 243.405Z" fill="#EBEBEB"/>
<g opacity="0.2">
<path d="M440.805 247.715H383.459V289.283H440.805V247.715Z" fill="white"/>
<path d="M403.722 243.405H383.459V247.715H404.883L403.722 243.405Z" fill="white"/>
</g>
<path d="M402.02 245.091H385.447V247.596H402.02V245.091Z" fill="white"/>
<path d="M440.805 289.283H383.459L383.037 250.292H440.384L440.805 289.283Z" fill="#EBEBEB"/>
<path d="M403.261 246.339H382.998L383.037 250.292H404.462L403.261 246.339Z" fill="#EBEBEB"/>
<g opacity="0.4">
<path d="M440.806 289.283H383.459L383.038 250.292H440.384L440.806 289.283Z" fill="white"/>
<path d="M403.261 246.339H382.998L383.037 250.292H404.462L403.261 246.339Z" fill="white"/>
</g>
<path d="M470.222 250.514H381.049V292.321H470.222V250.514Z" fill="#DBDBDB"/>
<path d="M470.23 250.514H440.702V292.321H470.23V250.514Z" fill="#C7C7C7"/>
<path opacity="0.1" d="M470.23 250.514H381.049V259.699L470.23 255.103V250.514Z" fill="#020100"/>
<path d="M421.21 258.713H400.541V265.123H421.21V258.713Z" fill="#A6A6A6"/>
<path d="M487.051 247.517L392.079 229.104L390.087 239.376L485.06 257.789L487.051 247.517Z" fill="#DBDBDB"/>
<path d="M489.287 246.309L457.762 240.324L455.807 250.621L487.332 256.607L489.287 246.309Z" fill="#C7C7C7"/>
<path d="M267.86 37.1138L242.626 86.412L235.525 75.4215L151.378 129.825L135.505 105.276L219.643 50.8797L212.542 39.8972L267.86 37.1138Z" fill="#EBEBEB"/>
<path d="M103.766 125.802L119.631 150.351L117.5 151.727L101.618 127.178L103.766 125.802Z" fill="#EBEBEB"/>
<path d="M114.883 118.612L130.757 143.154L123.488 147.862L107.623 123.312L114.883 118.612Z" fill="#EBEBEB"/>
<path d="M130.542 108.489L146.415 133.031L135.194 140.291L119.321 115.734L130.542 108.489Z" fill="#EBEBEB"/>
<path d="M130.192 179.585L115.615 208.039L111.52 201.701L62.9688 233.09L53.8074 218.927L102.366 187.53L98.2705 181.191L130.192 179.585Z" fill="#DBDBDB"/>
<path d="M50.9443 220.779L60.0977 234.943L53.6243 239.134L44.4629 224.962L50.9443 220.779Z" fill="#DBDBDB"/>
<path d="M41.2202 226.888L37.0251 229.584L46.1378 243.76L50.333 241.063L41.2202 226.888Z" fill="#DBDBDB"/>
<path d="M35.4845 230.768L44.6459 244.939L43.4132 245.735L34.2518 231.563L35.4845 230.768Z" fill="#DBDBDB"/>
<path d="M105.46 277.299C99.7734 268.821 91.9401 257.171 86.5085 248.669L89.6418 246.625C95.0257 255.023 102.859 267.231 108.012 275.629L108.052 275.692H107.988L105.46 277.235V277.299ZM105.46 277.299L107.909 275.629V275.732C102.485 267.779 94.5406 255.596 89.2124 247.413L89.769 247.532L87.2719 249.123L87.3912 248.59C92.6877 256.781 100.243 268.869 105.483 277.291L105.46 277.299Z" fill="#EBEBEB"/>
<path d="M279.98 144.275C279.566 144.792 251.048 201.455 250.706 201.908L250.507 201.598L242.252 188.874C243.843 188.675 144.602 252.16 144.992 252.2L144.682 252.399L144.475 252.089L126.057 223.587L125.85 223.269L126.168 223.07C126.248 223.332 224.478 159.139 223.826 160.379L215.603 147.655L215.404 147.345C215.714 147.345 279.63 144.347 279.98 144.315V144.275ZM279.98 144.275C279.98 144.068 214.856 148.252 215.953 147.385L224.216 160.109C224.765 160.514 126.661 223.372 126.582 223.674L126.693 223.157L145.103 251.651L144.586 251.54C144.912 251.604 242.475 187.919 242.634 188.595L250.865 201.359C249.569 202.154 280.29 144.188 279.98 144.259V144.275Z" fill="#EBEBEB"/>
<path d="M102.461 238.856C105.595 243.556 113.515 255.429 116.522 259.994L121.19 267.151L121.389 267.453L121.078 267.66L112.657 273.131L112.33 273.346L112.108 273.012C109.07 268.241 101.3 256.184 98.3975 251.58L93.8725 244.423L93.7691 244.271L93.9202 244.176L102.461 238.856ZM102.461 238.856L94.119 244.462L94.1747 244.208L98.8508 251.286C101.833 255.763 109.746 267.915 112.776 272.583L112.227 272.463L120.681 267.048L120.577 267.549L115.981 260.455C113.094 255.914 105.356 243.572 102.406 238.856H102.461Z" fill="#EBEBEB"/>
<path d="M120.601 227.102C126.168 235.484 133.938 247.079 139.322 255.413L139.513 255.707L139.218 255.898L126.216 264.352L125.882 264.574L125.667 264.232L116.498 249.918C113.388 245.146 110.35 240.247 107.273 235.412L120.601 227.062V227.102ZM120.601 227.102C117.42 229.265 110.923 233.567 107.71 235.714L107.774 235.404C110.875 240.128 114.017 244.836 117.086 249.584L126.319 263.803L125.77 263.684L138.821 255.301L138.717 255.795C133.437 247.58 125.866 235.507 120.585 227.102H120.601Z" fill="#EBEBEB"/>
<path d="M2.48914 342.049C163.339 341.564 343.783 341.556 504.633 342.049C343.783 342.542 163.339 342.534 2.48914 342.049Z" fill="#263238"/>
<path d="M42.1013 173.707C42.1013 173.707 20.7008 170.717 25.703 144.887C25.703 144.887 49.6086 150.279 42.1013 173.707Z" fill="#80BCFF"/>
<path opacity="0.1" d="M42.1013 173.707C42.1013 173.707 20.7008 170.717 25.703 144.887C25.703 144.887 49.6086 150.279 42.1013 173.707Z" fill="black"/>
<path d="M41.0197 168.316C40.5982 167.012 40.1052 165.731 39.5644 164.467C39.5644 164.3 39.5644 164.141 39.5087 163.982C39.5087 163.624 39.4451 163.266 39.4212 162.916C39.3576 162.121 39.3099 161.373 39.2622 160.602C39.1747 159.059 39.0713 157.508 39.0475 155.965C39.0475 155.886 38.9202 155.886 38.9202 155.965C38.9202 157.508 38.9202 159.051 38.9202 160.602C38.9202 161.397 38.9918 162.145 39.0475 162.916C39.0475 163.083 39.0475 163.258 39.0475 163.425C37.8496 160.853 36.4145 158.398 34.761 156.093C34.0507 155.069 33.2889 154.081 32.4786 153.134C31.6197 152.156 30.7211 151.226 29.8622 150.263C29.8065 150.2 29.7111 150.263 29.7668 150.359C31.3053 152.06 32.6867 153.896 33.8942 155.846C34.5463 156.832 35.1613 157.84 35.7392 158.868L35.5404 158.789C35.2859 158.685 35.0393 158.574 34.7451 158.478L33.0035 157.818C31.8503 157.389 30.7052 156.975 29.56 156.538C29.4884 156.538 29.4407 156.633 29.5123 156.657C30.6495 157.111 31.7788 157.588 32.9001 158.073L34.5542 158.789L35.3495 159.131C35.5316 159.222 35.7238 159.291 35.9221 159.337C36.3515 160.133 36.781 160.928 37.1706 161.723C38.1698 163.721 39.0436 165.78 39.7871 167.886C39.8427 168.03 39.8904 168.181 39.9381 168.324C39.3767 168 38.7919 167.718 38.1886 167.481L35.9698 166.471C34.4747 165.787 32.9796 165.087 31.5402 164.268C31.4686 164.228 31.405 164.347 31.4845 164.387C32.9478 165.183 34.3952 166.041 35.8664 166.845C36.5981 167.242 37.3376 167.64 38.0931 167.998C38.7183 168.366 39.3972 168.634 40.1052 168.793C40.82 170.75 41.2901 172.788 41.5048 174.861C41.7434 177.779 41.7195 180.73 41.7832 183.656C41.7832 183.704 41.8627 183.704 41.8627 183.656C42.0774 181 42.1967 178.32 42.2126 175.648C42.2102 173.156 41.8074 170.68 41.0197 168.316Z" fill="#263238"/>
<path d="M37.7273 153.126C37.5208 154.636 37.4489 156.161 37.5125 157.683H37.5762C37.6636 156.172 37.6795 154.661 37.8545 153.158C37.8625 153.078 37.7352 153.047 37.7273 153.126Z" fill="#263238"/>
<path d="M31.6039 154.423C30.6478 154.056 29.7268 153.603 28.8523 153.071C28.7886 153.023 28.7171 153.142 28.7886 153.182C29.6454 153.76 30.5835 154.208 31.5721 154.51C31.5828 154.511 31.5937 154.509 31.6029 154.503C31.6122 154.498 31.6192 154.489 31.6229 154.479C31.6266 154.469 31.6267 154.458 31.6233 154.447C31.6198 154.437 31.613 154.428 31.6039 154.423Z" fill="#263238"/>
<path d="M42.817 214.695C42.817 212.31 42.7534 209.964 42.7296 207.602C42.6819 199.744 42.6182 191.895 42.4751 184.046C42.3637 177.811 42.2179 171.576 42.0377 165.342C42.0354 165.326 42.0301 165.311 42.0219 165.297C42.0137 165.283 42.0028 165.271 41.99 165.262C41.99 163.56 41.99 161.858 41.99 160.156C41.99 160.156 41.9423 160.093 41.8866 160.093C41.8309 160.093 41.7832 160.093 41.7832 160.164C41.7832 161.866 41.7832 163.571 41.7832 165.278C41.7698 165.285 41.7583 165.295 41.7499 165.307C41.7416 165.32 41.7366 165.334 41.7355 165.349C41.4253 176.483 41.139 187.537 41.0754 198.639C41.0754 200.89 41.0754 203.148 41.0754 205.407C41.0012 212.633 40.9747 219.867 40.9959 227.109C40.9959 228.263 40.9959 229.408 40.9959 230.561C40.9959 237.185 41.0595 243.802 41.0675 250.442C41.0675 250.8 41.4572 250.975 41.8627 250.991C42.2683 251.007 42.8568 250.824 42.8568 250.419C42.8568 243.118 42.9045 235.818 42.9045 228.517C42.817 223.92 42.817 219.316 42.817 214.695Z" fill="#263238"/>
<path d="M33.8464 207.538C33.8464 207.538 23.5557 199.912 13.7899 205.065C4.02411 210.218 2.48926 230.084 2.48926 230.084C2.48926 230.084 16.804 232.128 25.862 223.531C34.5701 215.244 33.8464 207.538 33.8464 207.538Z" fill="#80BCFF"/>
<path d="M36.6539 207.999C34.7618 207.246 32.7128 206.973 30.6895 207.204C30.2744 207.13 29.8544 207.087 29.4329 207.077L27.9776 206.966L24.9795 206.759C22.9516 206.608 20.9157 206.48 18.8878 206.274C18.8737 206.279 18.8616 206.288 18.853 206.3C18.8444 206.312 18.8397 206.326 18.8397 206.341C18.8397 206.356 18.8444 206.371 18.853 206.383C18.8616 206.395 18.8737 206.404 18.8878 206.409C20.8918 206.663 22.8641 206.95 24.9 207.148C25.9338 207.252 26.9676 207.363 28.0094 207.435L28.757 207.506C28.4548 207.578 28.1446 207.649 27.8504 207.737C26.2333 208.205 24.6689 208.84 23.1822 209.63C22.3869 209.773 21.5917 210.003 20.7964 210.194C19.524 210.489 18.2516 210.823 16.9871 211.149C14.49 211.809 12.0167 212.54 9.53551 213.264C9.45598 213.264 9.5355 213.407 9.57526 213.391C12.0565 212.779 14.5456 212.222 17.0269 211.634L20.6453 210.767L21.5917 210.544C18.8275 212.259 16.3571 214.407 14.2753 216.906C12.2687 219.367 10.5628 222.058 9.19354 224.923C9.19354 225.002 9.26512 225.074 9.30488 224.994C10.995 222.048 13.0615 219.335 15.4522 216.922C15.4125 217.057 15.3648 217.193 15.325 217.328C15.1262 217.94 14.9433 218.545 14.7524 219.149C14.3707 220.358 13.9572 221.575 13.6231 222.791C13.6231 222.871 13.7186 222.895 13.7504 222.791C14.1798 221.614 14.5934 220.405 15.0069 219.252L15.6193 217.511L15.9294 216.612L16.0248 216.334C17.174 215.22 18.3933 214.182 19.6751 213.224C21.3705 211.974 23.2036 210.923 25.1385 210.091C25.1385 210.274 25.0749 210.449 25.0351 210.616C24.9318 211.085 24.8284 211.554 24.7329 212.023C24.5341 213.002 24.3433 213.98 24.1524 214.958C23.7627 216.946 23.5241 218.934 23.1504 220.954C23.1504 221.034 23.2617 221.066 23.2776 220.954C23.7389 218.95 24.3353 216.978 24.7807 214.974C25.0033 213.972 25.226 212.962 25.4407 211.96L25.727 210.544C25.7747 210.282 25.8384 210.019 25.8702 209.749L26.4269 209.518C29.1307 208.524 32.113 207.793 34.9918 208.349C36.353 208.603 37.6306 209.188 38.7113 210.054C39.792 210.92 40.6423 212.039 41.1869 213.312C41.2744 213.534 41.6322 213.399 41.5766 213.169C40.9801 210.791 38.9125 208.954 36.6539 207.999Z" fill="#263238"/>
<path d="M20.8997 216.485C20.6028 217.789 20.3139 219.093 20.0329 220.398C19.7046 221.647 19.4628 222.917 19.3092 224.199C19.3092 224.255 19.3808 224.255 19.3967 224.199C19.7716 222.944 20.0639 221.667 20.2715 220.374C20.526 219.085 20.7725 217.797 21.027 216.509C21.0429 216.437 20.9156 216.405 20.8997 216.485Z" fill="#263238"/>
<path d="M10.943 219.801C9.63882 220.461 8.3664 221.217 6.96674 221.765C6.95544 221.766 6.94457 221.77 6.93525 221.777C6.92593 221.783 6.9185 221.792 6.91373 221.802C6.90897 221.812 6.90704 221.824 6.90814 221.835C6.90924 221.846 6.91334 221.857 6.92001 221.866C6.92667 221.875 6.93567 221.883 6.94606 221.887C6.95645 221.892 6.96787 221.893 6.97912 221.892C6.99037 221.891 7.00105 221.886 7.01006 221.879C7.01907 221.873 7.02608 221.863 7.03037 221.853C8.39055 221.256 9.71788 220.587 11.0067 219.849C11.0067 219.849 11.0067 219.785 10.943 219.801Z" fill="#263238"/>
<path d="M36.1608 193.525C36.1608 193.525 23.5877 194.321 17.7346 186.034C11.8814 177.747 13.1936 165.898 13.1936 165.898C13.1936 165.898 26.4109 167.488 31.6516 173.461C36.8924 179.433 36.1608 193.525 36.1608 193.525Z" fill="#80BCFF"/>
<path d="M42.0694 205.948C41.632 204.604 41.0913 203.276 40.5823 201.971C40.0733 200.667 39.5723 199.45 38.9918 198.21C37.8677 195.674 36.6094 193.2 35.2222 190.798C34.3395 189.271 33.3852 187.784 32.407 186.321C32.407 186.098 32.3434 185.875 32.3036 185.653C32.248 185.263 32.1923 184.857 32.1287 184.484C32.0094 183.688 31.8662 182.893 31.731 182.098C31.4448 180.364 31.0869 178.638 30.8085 176.897C30.8085 176.817 30.6654 176.817 30.6813 176.897C30.9358 178.607 31.1028 180.332 31.3493 182.05C31.4607 182.893 31.572 183.744 31.6992 184.587L31.8424 185.493C29.9266 182.688 27.8502 179.995 25.6234 177.43C25.3212 177.08 25.0111 176.738 24.7089 176.396C24.7089 176.3 24.6294 176.205 24.5896 176.109C24.4942 175.871 24.4067 175.632 24.3192 175.394C24.1284 174.893 23.9534 174.392 23.7705 173.891C23.4206 172.905 23.1025 171.91 22.8321 170.9C22.8321 170.821 22.6889 170.853 22.7128 170.9C22.9593 171.926 23.2297 172.96 23.5081 173.978C23.6592 174.471 23.8182 174.956 23.9932 175.441C23.9932 175.521 24.0488 175.6 24.0806 175.688C22.4901 173.93 20.7962 172.244 19.1023 170.574C19.0896 170.563 19.0729 170.557 19.0558 170.557C19.0386 170.558 19.0225 170.566 19.0109 170.578C18.9993 170.591 18.9932 170.608 18.9939 170.625C18.9946 170.642 19.0022 170.658 19.0148 170.67C22.2656 174.07 25.2437 177.721 27.9217 181.589C27.6169 181.49 27.3062 181.41 26.9913 181.35C26.0211 181.159 25.0509 181.024 24.0727 180.905C22.0209 180.642 19.9771 180.38 17.9333 180.062C17.8537 180.062 17.8219 180.173 17.9333 180.189C19.8817 180.571 21.8141 180.984 23.7546 181.454C24.6691 181.66 25.5837 181.843 26.4982 182.026C27.2484 182.186 27.987 182.396 28.7091 182.654C28.9158 182.941 29.1226 183.227 29.3214 183.521C30.2439 184.865 31.1346 186.241 32.0014 187.617L30.7131 187.37C29.7429 187.179 28.7727 187.004 27.7945 186.845C25.8779 186.527 23.9534 186.193 22.0607 185.764C22.0438 185.764 22.0276 185.771 22.0157 185.783C22.0038 185.794 21.9971 185.811 21.9971 185.828C21.9971 185.844 22.0038 185.861 22.0157 185.872C22.0276 185.884 22.0438 185.891 22.0607 185.891C23.9852 186.344 25.8859 186.869 27.7945 187.378C28.717 187.625 29.6475 187.847 30.5779 188.054L31.9776 188.356C32.1625 188.406 32.3515 188.438 32.5422 188.452C34.3819 191.437 36.1023 194.483 37.7035 197.589C38.4033 198.957 39.0793 200.338 39.7314 201.733C40.4074 203.164 40.9799 204.62 41.6002 206.067C41.7116 206.377 42.1649 206.258 42.0694 205.948Z" fill="#263238"/>
<path d="M29.1943 177.032C28.9557 175.831 28.7012 174.646 28.399 173.437C28.399 173.358 28.2559 173.398 28.2797 173.437C28.5183 174.614 28.741 175.823 28.9557 176.984C29.1345 178.17 29.3734 179.346 29.6714 180.507C29.5942 179.339 29.4347 178.178 29.1943 177.032Z" fill="#263238"/>
<path d="M21.854 176.682C21.2735 176.388 20.6532 176.157 20.0488 175.886L19.0945 175.513L18.6094 175.322C18.4232 175.266 18.2444 175.189 18.0765 175.091C17.9811 175.02 17.9175 175.187 18.0129 175.203C18.2017 175.251 18.3834 175.323 18.5537 175.417L19.0308 175.632L19.9454 176.038C20.5507 176.32 21.1721 176.567 21.8063 176.777C21.8779 176.833 21.9256 176.714 21.854 176.682Z" fill="#263238"/>
<path d="M49.0361 183.68C49.0361 183.68 56.6547 169.421 68.2655 167.219C79.8763 165.016 86.9303 176.929 86.9303 176.929C86.9303 176.929 78.4846 187.72 67.844 189.605C57.2034 191.49 49.0361 183.68 49.0361 183.68Z" fill="#80BCFF"/>
<path d="M75.9955 173.588C72.9786 173.188 69.9197 173.226 66.9136 173.7L67.4225 173.421L69.9992 172.101C71.7598 171.123 73.5701 170.236 75.4229 169.445C75.4311 169.455 75.4423 169.463 75.455 169.467C75.4677 169.47 75.4812 169.47 75.4936 169.465C75.506 169.461 75.5168 169.453 75.5244 169.442C75.5321 169.431 75.5362 169.419 75.5362 169.405C75.5362 169.392 75.5321 169.379 75.5244 169.369C75.5168 169.358 75.506 169.35 75.4936 169.345C75.4812 169.341 75.4677 169.341 75.455 169.344C75.4423 169.348 75.4311 169.355 75.4229 169.366C73.6097 170.209 71.7329 170.956 69.9117 171.751C69.0051 172.165 68.1065 172.602 67.2237 173.072C66.6511 173.374 66.0229 173.66 65.4582 174.026C62.9156 174.536 60.4451 175.356 58.1021 176.467L59.5494 174.877C60.631 173.692 61.6887 172.451 62.8736 171.378C62.9373 171.322 62.8737 171.235 62.7782 171.29C61.5694 172.388 60.2891 173.406 59.1121 174.551C58.5395 175.107 57.9987 175.68 57.4659 176.276C57.2034 176.571 56.933 176.873 56.6706 177.191C52.6935 179.32 49.2378 182.305 46.5522 185.929C43.8666 189.554 42.0179 193.729 41.1392 198.154C41.1392 198.234 41.2425 198.281 41.2664 198.202C42.8955 192.781 45.8155 187.836 49.7757 183.792C54.0348 179.444 59.3991 176.339 65.2912 174.813C68.7878 173.923 72.4038 173.596 76.0034 173.843C76.0372 173.842 76.0691 173.828 76.0922 173.803C76.1153 173.778 76.1277 173.745 76.1267 173.712C76.1256 173.678 76.1112 173.646 76.0866 173.623C76.062 173.6 76.0292 173.587 75.9955 173.588Z" fill="#263238"/>
<path opacity="0.1" d="M86.8983 176.936C86.8983 176.936 78.4527 187.72 67.8121 189.605C59.7084 191.036 53.0361 186.813 50.3163 184.73L49.7278 183.768C49.7278 183.768 55.2151 179.147 65.5854 176.483C75.9556 173.819 86.8983 176.936 86.8983 176.936Z" fill="black"/>
<path d="M69.2674 168.523C68.3776 169.039 67.5174 169.605 66.6907 170.217C65.8873 170.828 65.1419 171.512 64.464 172.26C64.4513 172.273 64.4442 172.29 64.4442 172.308C64.4442 172.326 64.4513 172.343 64.464 172.356C64.4766 172.369 64.4938 172.376 64.5117 172.376C64.5296 172.376 64.5468 172.369 64.5594 172.356C65.3547 171.688 66.1022 171.02 66.8975 170.392C67.6738 169.755 68.4892 169.168 69.3389 168.634C69.3537 168.625 69.3641 168.61 69.3678 168.592C69.3715 168.575 69.3683 168.557 69.3588 168.543C69.3493 168.528 69.3344 168.517 69.3172 168.514C69.3001 168.51 69.2821 168.513 69.2674 168.523Z" fill="#263238"/>
<path d="M75.6217 170.956C75.1923 171.139 74.7549 171.29 74.3254 171.473L73.0371 172.006C72.9417 172.046 72.9894 172.197 73.0848 172.157L74.3732 171.632C74.8026 171.457 75.2241 171.258 75.6615 171.083C75.7331 171.02 75.7013 170.892 75.6217 170.956Z" fill="#263238"/>
<path d="M47.517 201.534C47.517 201.534 49.5529 215.642 60.1617 220.573C70.7705 225.503 83.6935 220.573 83.6935 220.573C83.6935 220.573 78.6038 190.043 47.517 201.534Z" fill="#80BCFF"/>
<path d="M76.385 211.395C75.4068 211.284 74.4366 211.117 73.4663 210.942L72.0428 210.671C71.8043 210.624 71.5498 210.568 71.2953 210.528C71.0169 210.258 70.7307 209.987 70.4364 209.733C68.4279 207.964 66.258 206.388 63.955 205.025C62.6988 204.284 61.4003 203.618 60.0662 203.029H60.265L63.7562 203.18C66.0863 203.291 68.4085 203.339 70.7386 203.49C70.8261 203.49 70.8181 203.363 70.7386 203.363C68.4005 203.204 66.0784 202.949 63.7483 202.743L60.3525 202.44L58.6029 202.289L58.1576 202.242C57.5532 202.019 56.9408 201.804 56.3285 201.613C53.4361 200.622 50.3255 200.451 47.342 201.12C44.6779 201.804 42.0138 203.546 41.3219 206.361C41.3219 206.456 41.4491 206.528 41.4889 206.433C42.483 204.047 45.0914 202.894 47.4454 202.409C49.019 202.106 50.6326 202.074 52.217 202.313C52.3304 203.039 52.5115 203.752 52.7578 204.444C53.052 205.438 53.3383 206.433 53.6405 207.419C54.2449 209.399 54.905 211.395 55.4935 213.351C55.5004 213.365 55.512 213.375 55.526 213.381C55.5401 213.387 55.5557 213.387 55.5701 213.383C55.5845 213.378 55.5968 213.368 55.6046 213.355C55.6124 213.342 55.6153 213.327 55.6127 213.312C55.1197 211.331 54.7061 209.335 54.229 207.355C53.9984 206.377 53.7518 205.407 53.5053 204.436C53.3733 203.755 53.1952 203.082 52.9725 202.424C53.9008 202.592 54.8193 202.81 55.7241 203.077C57.3507 203.562 58.9445 204.152 60.4956 204.842C60.6467 205.844 60.8774 206.838 61.108 207.832C61.3943 209.081 61.7203 210.313 62.11 211.53C62.1145 211.542 62.1227 211.553 62.1333 211.56C62.144 211.568 62.1567 211.572 62.1697 211.572C62.1827 211.572 62.1953 211.568 62.206 211.56C62.2167 211.553 62.2248 211.542 62.2293 211.53L62.1816 211.3C61.943 210.146 61.6885 208.993 61.45 207.84C61.2511 206.91 61.0682 205.979 60.8694 205.049C62.1895 205.645 63.4779 206.289 64.7344 207.013C64.7344 207.299 64.8298 207.594 64.8696 207.856C64.9491 208.341 65.0366 208.818 65.1241 209.303C65.3229 210.393 65.5376 211.475 65.8 212.548C66.2798 214.63 66.888 216.681 67.6212 218.688C67.6133 218.699 67.6091 218.713 67.6091 218.727C67.6091 218.741 67.6133 218.755 67.6212 218.767L67.6768 218.839C67.7246 218.886 67.7961 218.839 67.7882 218.767C67.2951 216.676 66.7384 214.608 66.2772 212.508C66.0466 211.459 65.8159 210.417 65.6092 209.327C65.4978 208.802 65.4024 208.278 65.307 207.737C65.307 207.586 65.2513 207.427 65.2274 207.268C66.6579 208.104 68.0387 209.023 69.3628 210.019C71.6634 211.736 73.7939 213.669 75.7249 215.793C75.7965 215.872 75.9476 215.793 75.876 215.666C75.0884 214.593 74.2442 213.563 73.3471 212.58C72.8142 212.007 72.2655 211.459 71.7009 210.918H71.8758C72.3689 211.005 72.8699 211.077 73.3709 211.148C74.3491 211.276 75.3352 211.371 76.3134 211.482C76.4406 211.514 76.4724 211.411 76.385 211.395Z" fill="#263238"/>
<path d="M68.9335 216.183C68.9335 216.055 68.8938 215.936 68.8779 215.817C68.862 215.698 68.7665 215.507 68.7427 215.356C68.52 214.417 68.3371 213.463 68.1701 212.509C68.1701 212.445 68.0508 212.461 68.0508 212.509C68.1125 213.771 68.3812 215.015 68.846 216.191C68.846 216.191 68.9256 216.191 68.9176 216.191L68.9335 216.183Z" fill="#263238"/>
<path d="M60.0584 215.952C60.0564 215.936 60.0489 215.922 60.0372 215.912C60.0254 215.902 60.0104 215.896 59.9948 215.896C59.6926 214.648 59.4063 213.399 59.1518 212.135C59.0166 211.475 58.8814 210.814 58.7542 210.154C58.6826 209.797 58.619 209.439 58.5553 209.081C58.5276 208.766 58.4498 208.457 58.3247 208.166C58.3202 208.154 58.3121 208.144 58.3014 208.136C58.2907 208.129 58.2781 208.125 58.2651 208.125C58.2521 208.125 58.2394 208.129 58.2288 208.136C58.2181 208.144 58.21 208.154 58.2054 208.166C58.1964 208.807 58.2877 209.446 58.4758 210.059C58.6031 210.751 58.7383 211.435 58.8894 212.119C59.1995 213.51 59.5415 214.902 59.9391 216.27C59.9391 216.342 60.0823 216.326 60.0743 216.27C60.0663 216.214 60.0663 216.055 60.0584 215.952Z" fill="#263238"/>
<path d="M75.4227 207.339C73.4823 207.069 71.5498 206.79 69.6094 206.544C69.5219 206.544 69.4901 206.663 69.6094 206.671C71.5418 206.957 73.4823 207.196 75.4227 207.466C75.4704 207.474 75.5022 207.347 75.4227 207.339Z" fill="#263238"/>
<path d="M42.0853 168.451C42.0853 168.451 35.5959 139.981 66.1896 128.458C66.1896 128.458 74.6671 165.938 42.0853 168.451Z" fill="#80BCFF"/>
<path d="M48.6862 152.308L49.0202 152.101L50.7459 151.139L54.2928 149.15C56.6308 147.846 58.9371 146.486 61.2831 145.174C61.3627 145.174 61.2831 145.023 61.2195 145.063C58.8337 146.343 56.4479 147.536 54.0622 148.793L50.5551 150.645L49.1236 151.441C50.1415 149.508 51.239 147.608 52.4319 145.778C54.0224 143.345 55.7799 141.007 57.609 138.748C57.6885 138.645 57.5534 138.51 57.4579 138.605C54.7744 141.214 52.3996 144.123 50.3801 147.274C50.3801 147.178 50.3801 147.075 50.3801 146.979C50.3801 146.272 50.4278 145.564 50.4437 144.856C50.4437 143.464 50.396 142.073 50.4437 140.681C50.4437 140.601 50.3165 140.601 50.3165 140.681C50.2529 142.049 50.0938 143.409 50.0143 144.776C50.0143 145.46 49.9427 146.144 49.9268 146.82C49.9268 147.194 49.8791 147.616 49.9268 148.021C49.2906 149.023 48.6862 150.038 48.1136 151.067C47.0914 152.922 46.1805 154.837 45.3859 156.801C45.3859 156.093 45.3063 155.385 45.2666 154.677C45.1791 153.087 44.9882 151.568 44.9166 150.001C44.9166 149.922 44.7894 149.922 44.7894 150.001C44.7894 151.592 44.7894 153.119 44.7894 154.677C44.7894 155.473 44.8371 156.268 44.8928 157.016L44.9405 157.89C43.9683 160.432 43.1971 163.046 42.6342 165.708C42.1056 168.555 41.7234 171.427 41.4891 174.312C41.4891 174.312 41.4891 174.312 41.5288 174.312C41.837 171.713 42.3692 169.146 43.1194 166.638C43.4931 165.294 43.9146 163.958 44.3282 162.662C45.6006 162.057 46.8173 161.31 48.05 160.626C49.2826 159.942 50.6107 159.234 51.8831 158.527C54.4359 157.127 56.9887 155.703 59.621 154.471C59.6926 154.471 59.621 154.32 59.5494 154.359C56.8853 155.568 54.1973 156.745 51.5968 158.026C50.2926 158.686 49.0043 159.385 47.7319 160.101C46.6742 160.698 45.5847 161.294 44.5508 161.986C44.8451 161.103 45.1552 160.22 45.4972 159.346C46.4403 156.947 47.5046 154.598 48.6862 152.308Z" fill="#263238"/>
<path d="M46.1093 145.794C46.1093 145.707 45.9741 145.715 45.9821 145.794C46.0855 147.385 46.1411 149.047 46.3161 150.661C46.3161 150.68 46.3236 150.698 46.3371 150.712C46.3505 150.725 46.3687 150.733 46.3877 150.733C46.4066 150.733 46.4249 150.725 46.4383 150.712C46.4517 150.698 46.4592 150.68 46.4592 150.661C46.4036 149.031 46.2286 147.416 46.1093 145.794Z" fill="#263238"/>
<path d="M60.7741 151.234C58.8655 152.029 56.933 152.737 55.0244 153.532C54.9687 153.532 55.0244 153.643 55.0244 153.619C56.9648 152.896 58.8655 152.108 60.79 151.353C60.8934 151.329 60.8536 151.202 60.7741 151.234Z" fill="#263238"/>
<path d="M63.6847 138.096C61.815 138.96 59.9986 139.934 58.2451 141.015C58.2324 141.029 58.2247 141.046 58.2229 141.065C58.2212 141.084 58.2255 141.103 58.2354 141.119C58.2452 141.135 58.26 141.147 58.2775 141.154C58.295 141.161 58.3143 141.163 58.3326 141.158C60.106 140.116 61.9112 139.122 63.7562 138.207C63.8278 138.176 63.7563 138.064 63.6847 138.096Z" fill="#263238"/>
<path d="M63.2236 230.028H19.1025V276.535H63.2236V230.028Z" fill="#455A64"/>
<path d="M18.323 246.482H16.0645V342.049H18.323V246.482Z" fill="#263238"/>
<path d="M66.0229 246.482H63.7643V342.049H66.0229V246.482Z" fill="#263238"/>
<path d="M43.3737 246.482H41.1152V342.049H43.3737V246.482Z" fill="#263238"/>
<path d="M64.8935 273.553H17.1937V279.995H64.8935V273.553Z" fill="#263238"/>
<path d="M58.3406 341.715C84.8546 337.293 153.899 322.867 173.502 313.253C282.215 260.861 334.145 79.4458 334.789 77.6724H422.316C421.664 79.406 411.349 109.101 367.689 191.999C340.698 241.258 301.635 274.094 255.557 301.069C176.421 347.361 58.3406 341.715 58.3406 341.715Z" fill="#80BCFF"/>
<g opacity="0.1">
<path d="M58.3406 341.715C84.8546 337.293 153.899 322.867 173.502 313.253C282.215 260.861 334.145 79.4458 334.789 77.6724H422.316C421.664 79.406 411.349 109.101 367.689 191.999C340.698 241.258 301.635 274.094 255.557 301.069C176.421 347.361 58.3406 341.715 58.3406 341.715Z" fill="black"/>
</g>
<path d="M314.454 68.5825L334.789 77.6724C334.232 79.1515 307.138 218.752 224.248 285.76C166.082 332.776 128.856 343.814 2.48926 341.938V317.38C73.8003 317.38 124.673 315.074 171.085 290.858C275.828 236.216 314.295 68.9881 314.454 68.5825Z" fill="#80BCFF"/>
<path d="M314.454 68.5825H408.788L422.316 77.6724H334.789L314.454 68.5825Z" fill="#80BCFF"/>
<path d="M386.306 10.1309L447.645 87.6927L303.082 87.303L386.306 10.1309Z" fill="#80BCFF"/>
<g opacity="0.1">
<path d="M386.306 10.1309L447.645 87.6927L303.082 87.303L386.306 10.1309Z" fill="black"/>
</g>
<path d="M303.082 87.3028L282.055 77.6721L365.279 0.5L386.306 10.1306L303.082 87.3028Z" fill="#80BCFF"/>
<path d="M458.214 68.5025C457.846 72.0337 456.504 75.393 454.337 78.2055C452.17 81.0179 449.265 83.1726 445.944 84.4291C442.624 85.6855 439.019 85.9941 435.533 85.3205C432.048 84.6469 428.818 83.0175 426.205 80.6143L416.59 82.022L421.361 73.7353C420.263 71.0382 419.794 68.1262 419.99 65.2206C420.186 62.315 421.041 59.4923 422.492 56.9671C423.942 54.4419 425.95 52.2805 428.361 50.6474C430.772 49.0143 433.524 47.9524 436.407 47.5424C439.29 47.1324 442.229 47.3851 445 48.2812C447.771 49.1774 450.301 50.6935 452.398 52.7142C454.495 54.735 456.103 57.2072 457.102 59.943C458.1 62.6788 458.461 65.6061 458.158 68.5025H458.214Z" fill="white"/>
<path d="M458.214 68.5025C457.842 72.033 456.505 75.3928 454.349 78.2127C453.807 78.9109 453.225 79.5774 452.607 80.2088C451.971 80.8213 451.296 81.3924 450.587 81.9186C447.741 84.0659 444.355 85.3818 440.805 85.7199C439.922 85.8021 439.035 85.8207 438.149 85.7756C437.258 85.7502 436.37 85.6572 435.493 85.4973C431.963 84.8472 428.684 83.2282 426.021 80.8211L426.244 80.8927L416.701 82.356L416.009 82.4673L416.359 81.855L421.131 73.5525V73.8785C419.732 70.4505 419.344 66.6936 420.014 63.0522C420.683 59.4109 422.381 56.0374 424.908 53.3311C427.434 50.6247 430.683 48.6986 434.27 47.7808C437.857 46.8629 441.631 46.9917 445.147 48.1518C447.917 49.0898 450.441 50.6359 452.535 52.6768C454.616 54.7145 456.207 57.1971 457.191 59.938C458.174 62.679 458.524 65.6071 458.214 68.5025ZM458.214 68.5025C458.521 65.6157 458.16 62.6969 457.16 59.9714C456.161 57.2459 454.548 54.7866 452.447 52.7831C450.346 50.7797 447.813 49.2857 445.043 48.4166C442.273 47.5474 439.34 47.3262 436.471 47.7701C433.629 48.1924 430.922 49.2617 428.558 50.8955C426.217 52.5397 424.261 54.6723 422.824 57.1462C421.413 59.629 420.584 62.3999 420.399 65.2499C420.217 68.0988 420.676 70.9523 421.743 73.6002L421.814 73.7672L421.727 73.9262L416.9 82.1969L416.558 81.688L426.133 80.344H426.268L426.363 80.4315C428.921 82.8277 432.097 84.4635 435.533 85.1553C436.39 85.3287 437.259 85.4351 438.133 85.4734C439.007 85.533 439.884 85.533 440.758 85.4734C442.506 85.3399 444.227 84.9625 445.871 84.3521C447.525 83.7495 449.081 82.9082 450.492 81.855C451.199 81.335 451.873 80.7719 452.512 80.169C453.134 79.5469 453.716 78.8855 454.253 78.1888C456.442 75.3874 457.813 72.0349 458.214 68.5025Z" fill="#263238"/>
<path d="M436.447 77.4492L428.264 69.1705L431.008 66.4507L435.787 71.2939L445.72 55.7227L448.981 57.8062L436.447 77.4492Z" fill="#80BCFF"/>
<path d="M328.101 342.287C329.898 342.868 381.105 342.208 383.038 340.943C383.777 340.474 384.119 332.99 384.27 323.972V323.686C384.27 321.825 379.499 290.603 379.499 290.603L345.247 290.945L351.187 323.75V324.306C351.187 324.306 331.704 333.332 329.715 334.947C327.727 336.561 326.304 341.714 328.101 342.287Z" fill="#FBC6BF"/>
<path d="M384.27 323.686V323.972C384.119 332.998 383.777 340.466 383.038 340.943C381.105 342.199 329.898 342.867 328.109 342.287C326.32 341.706 327.823 336.553 329.779 334.947C331.735 333.34 351.251 324.314 351.251 324.314V323.741L350.353 318.795H383.714C384.056 321.419 384.278 323.28 384.27 323.686Z" fill="#EBEBEB"/>
<path d="M328.101 342.287C329.024 342.581 342.933 342.549 356.532 342.287C359.267 342.231 361.987 342.168 364.58 342.096C374.274 341.834 382.29 341.428 383.03 340.943C383.769 340.458 384.103 333.221 384.254 324.354C384.254 324.227 384.254 324.107 384.254 323.98C384.254 323.853 384.254 323.781 384.254 323.686H384.215L351.211 323.749V324.314C351.211 324.314 331.727 333.332 329.739 334.947C327.751 336.561 326.304 341.714 328.101 342.287Z" fill="#80BCFF"/>
<path d="M328.658 340.299C337.286 339.973 372.119 339.504 380.676 339.814C380.747 339.814 380.747 339.869 380.676 339.869C372.127 340.378 337.294 340.585 328.658 340.434C328.475 340.434 328.475 340.299 328.658 340.299Z" fill="#263238"/>
<path d="M347.553 323.893C350.941 323.209 355.1 323.678 357.733 326.064C357.836 326.159 357.733 326.302 357.589 326.271C354.33 325.26 350.97 324.607 347.569 324.322C347.541 324.323 347.513 324.319 347.486 324.309C347.46 324.299 347.436 324.284 347.415 324.265C347.394 324.246 347.378 324.223 347.366 324.197C347.354 324.171 347.347 324.144 347.346 324.115C347.345 324.087 347.35 324.059 347.36 324.033C347.37 324.006 347.385 323.982 347.404 323.961C347.423 323.941 347.446 323.924 347.472 323.912C347.497 323.9 347.525 323.894 347.553 323.893Z" fill="#263238"/>
<path d="M345.12 325.396C348.508 324.72 352.675 325.189 355.299 327.575C355.402 327.67 355.299 327.813 355.156 327.773C351.897 326.771 348.541 326.118 345.144 325.825C345.087 325.828 345.031 325.809 344.988 325.771C344.946 325.733 344.92 325.679 344.917 325.622C344.914 325.565 344.933 325.509 344.971 325.467C345.009 325.424 345.063 325.399 345.12 325.396Z" fill="#263238"/>
<path d="M342.686 326.907C346.074 326.231 350.241 326.7 352.865 329.086C352.969 329.173 352.865 329.316 352.722 329.284C349.463 328.282 346.107 327.629 342.71 327.336C342.653 327.339 342.597 327.32 342.555 327.282C342.512 327.244 342.486 327.19 342.483 327.133C342.48 327.076 342.5 327.02 342.538 326.978C342.576 326.935 342.629 326.91 342.686 326.907Z" fill="#263238"/>
<path d="M347.553 323.646H385.352C385.352 323.646 373.701 247.301 373.996 245.806C374.139 245.011 426.936 165.699 426.936 165.699H387.595C387.595 165.699 343.219 222.441 338.225 236.732C334.598 247.15 347.553 323.646 347.553 323.646Z" fill="#263238"/>
<path d="M369.264 242.887C369.813 240.676 371.077 238.72 372.238 236.787C374.87 232.437 420.232 169.572 420.868 168.538C420.916 168.459 421.043 168.498 421.003 168.538C419.206 172.316 374.385 233.582 371.602 239.412C370.544 241.638 369.63 243.698 369.677 246.195C369.811 248.702 370.077 251.2 370.473 253.679C370.801 256.186 371.133 258.689 371.467 261.186C372.145 266.196 372.848 271.198 373.574 276.193C375.043 286.229 376.567 296.262 378.147 306.293C378.346 307.542 378.552 308.79 378.759 310.031C378.759 310.15 378.6 310.198 378.576 310.079C376.779 300.05 375.029 290.022 373.511 279.946C371.992 269.87 370.616 259.778 369.28 249.671C368.85 247.43 368.845 245.129 369.264 242.887Z" fill="#455A64"/>
<path d="M380.89 314.691C375.324 314.691 376.914 314.588 371.435 314.652C368.731 314.652 350.989 314.89 348.476 315.447C348.42 315.447 348.42 315.566 348.476 315.574C351.012 316.004 368.747 315.439 371.451 315.343C376.962 315.161 375.379 315.145 380.89 314.89C380.994 314.898 380.994 314.691 380.89 314.691Z" fill="#37474F"/>
<path d="M503.934 341.794C502.144 342.406 450.937 342.677 448.981 341.452C448.233 340.991 447.756 333.499 447.446 324.505C447.446 324.41 447.446 324.314 447.446 324.219C447.375 322.366 434.603 291.47 434.603 291.47L468.075 291.199L480.473 323.646V324.211C480.473 324.211 500.124 332.871 502.136 334.446C504.148 336.02 505.715 341.19 503.934 341.794Z" fill="#FBC6BF"/>
<path d="M503.933 341.794C502.144 342.406 450.937 342.677 448.981 341.452C448.233 340.991 447.756 333.499 447.446 324.505C447.446 324.409 447.446 324.314 447.446 324.219C447.446 324.123 444.973 318.024 444.965 317.753L478.008 317.395L480.481 323.678V324.242C480.481 324.242 500.132 332.903 502.144 334.477C504.156 336.052 505.715 341.189 503.933 341.794Z" fill="#EBEBEB"/>
<path d="M503.933 341.794C502.144 342.406 450.937 342.677 448.981 341.452C448.233 340.991 447.756 333.499 447.446 324.505C447.446 324.409 447.446 324.314 447.446 324.219L480.481 323.678V324.242C480.481 324.242 500.132 332.903 502.144 334.477C504.156 336.052 505.715 341.189 503.933 341.794Z" fill="#80BCFF"/>
<path d="M503.345 339.814C494.708 339.647 459.868 339.814 451.327 340.283C451.255 340.283 451.255 340.331 451.327 340.339C459.876 340.689 494.716 340.259 503.345 339.949C503.528 339.949 503.528 339.814 503.345 339.814Z" fill="#263238"/>
<path d="M484.187 323.75C480.791 323.137 476.64 323.678 474.055 326.135C473.952 326.231 474.055 326.374 474.199 326.342C477.439 325.273 480.785 324.555 484.179 324.203C484.239 324.204 484.297 324.181 484.34 324.139C484.384 324.097 484.409 324.04 484.41 323.98C484.411 323.92 484.388 323.862 484.346 323.819C484.304 323.775 484.247 323.751 484.187 323.75Z" fill="#263238"/>
<path d="M486.613 325.237C483.209 324.616 479.058 325.157 476.473 327.622C476.37 327.71 476.513 327.853 476.616 327.821C479.847 326.743 483.186 326.015 486.573 325.65C486.62 325.643 486.663 325.62 486.695 325.585C486.728 325.55 486.748 325.506 486.752 325.459C486.757 325.411 486.746 325.364 486.72 325.324C486.695 325.284 486.657 325.253 486.613 325.237Z" fill="#263238"/>
<path d="M489.07 326.684C485.666 326.064 481.515 326.612 478.93 329.07C478.835 329.165 478.97 329.3 479.082 329.269C482.319 328.201 485.663 327.486 489.054 327.137C489.114 327.139 489.173 327.118 489.217 327.077C489.261 327.036 489.287 326.979 489.289 326.919C489.291 326.858 489.269 326.8 489.228 326.756C489.187 326.712 489.13 326.686 489.07 326.684Z" fill="#263238"/>
<path d="M391.73 165.731C391.73 165.731 396.446 194.472 396.764 195.394C396.764 195.394 398.521 196.189 401.679 197.685L439.851 323.551L482.127 323.702L431.97 165.731H391.73Z" fill="#263238"/>
<path d="M395.229 194.504C398.897 196.034 402.426 197.881 405.774 200.023C405.797 200.041 405.813 200.066 405.819 200.095C405.825 200.123 405.822 200.153 405.809 200.179C405.796 200.205 405.774 200.226 405.748 200.238C405.721 200.25 405.691 200.253 405.663 200.245C402.108 198.512 398.506 196.85 395.014 194.925C394.967 194.892 394.933 194.843 394.918 194.787C394.904 194.731 394.911 194.672 394.937 194.62C394.963 194.569 395.007 194.528 395.061 194.507C395.115 194.486 395.175 194.484 395.229 194.504Z" fill="#455A64"/>
<path d="M396.589 178.042C397.17 181.477 397.488 184.969 397.877 188.436L398.164 190.933C398.184 191.699 398.389 192.45 398.76 193.12C399.508 194.281 400.844 194.822 402.06 195.355C402.196 195.41 402.14 195.633 401.989 195.585C400.683 195.272 399.477 194.635 398.482 193.732C397.376 192.563 397.408 190.79 397.241 189.287C396.758 185.563 396.492 181.813 396.446 178.058C396.43 177.97 396.573 177.946 396.589 178.042Z" fill="#455A64"/>
<path d="M400.772 179.092C400.891 181.573 401.17 184.054 401.377 186.519C401.48 187.744 401.567 188.961 401.639 190.185C401.711 191.41 401.862 192.698 401.822 193.947C401.822 194.027 401.687 194.05 401.671 193.947C401.464 192.77 401.44 191.561 401.337 190.352C401.233 189.144 401.154 187.847 401.082 186.591C400.939 184.094 400.876 181.573 400.645 179.076C400.685 179.012 400.764 179.02 400.772 179.092Z" fill="#455A64"/>
<path d="M406.172 202.965C409.098 210.123 440.368 312.393 440.71 313.284C440.71 313.356 440.622 313.395 440.591 313.332C436.408 305.149 409.719 212.866 407.047 205.677L406.045 203.005C406.029 202.942 406.14 202.894 406.172 202.965Z" fill="#455A64"/>
<path d="M439.549 316.489C440.774 316.322 442.038 316.322 443.271 316.234C444.503 316.147 445.744 316.131 446.985 316.099C449.466 316.044 451.947 316.012 454.428 315.98C459.348 315.927 464.274 315.9 469.204 315.9C472.011 315.9 474.827 316.051 477.634 316.115C477.645 316.111 477.656 316.11 477.668 316.112C477.679 316.113 477.69 316.118 477.699 316.124C477.708 316.131 477.716 316.14 477.721 316.15C477.726 316.16 477.729 316.171 477.729 316.183C477.729 316.194 477.726 316.205 477.721 316.216C477.716 316.226 477.708 316.234 477.699 316.241C477.69 316.248 477.679 316.252 477.668 316.254C477.656 316.255 477.645 316.254 477.634 316.25C475.161 316.354 472.68 316.505 470.198 316.6C467.717 316.696 465.244 316.704 462.763 316.743C457.76 316.815 452.766 316.894 447.772 316.879C446.38 316.879 444.996 316.879 443.605 316.831C442.213 316.783 440.869 316.831 439.533 316.632C439.446 316.6 439.477 316.489 439.549 316.489Z" fill="#455A64"/>
<path d="M405.806 123.343C397.925 116.711 386.489 101.203 384.469 95.2946C381.861 87.684 378.306 61.8936 381.089 59.15C382.632 57.639 400.7 61.5358 401.583 63.6989C402.466 65.862 401.106 88.1611 401.257 89.8789C401.408 91.5967 408.414 108.289 412.478 116.305C417.218 125.682 410.943 127.67 405.806 123.343Z" fill="#FBC6BF"/>
<path d="M380.381 66.7769C379.745 65.3007 379.594 63.6601 379.952 62.0928C380.644 59.5957 382.6 57.0429 382.242 55.4683C381.678 52.9632 379.65 48.8596 380.652 48.0564C382.696 46.3864 384.962 47.8338 387.324 52.5417C387.936 53.7664 388.748 56.7964 389.614 57.019C391.125 57.4167 392 54.7843 392.374 52.3349C393.114 47.5634 393.225 40.581 396.454 39.9368C397.678 39.6982 398.1 41.4717 398.179 43.6268C398.553 40.5412 399.277 37.5033 400.621 37.1773C400.968 37.096 401.334 37.1514 401.642 37.332C401.95 37.5126 402.176 37.8045 402.275 38.1475C402.364 37.7916 402.557 37.4701 402.828 37.2238C403.1 36.9774 403.439 36.8173 403.802 36.7637C405.042 36.6603 405.806 37.8214 406.267 39.404C406.383 39.2899 406.524 39.2052 406.679 39.1567C406.834 39.1083 406.998 39.0977 407.158 39.1256C410.45 39.4597 410.896 51.5238 409.496 54.4265C406.585 60.1362 402.903 65.4185 398.553 70.1249C394.004 71.119 380.381 66.7769 380.381 66.7769Z" fill="#FBC6BF"/>
<path d="M396.509 57.4403C397.645 55.5227 398.34 53.3768 398.545 51.1577C398.76 48.5493 398.267 45.9408 398.219 43.3403C398.219 43.2687 398.108 43.2767 398.108 43.3403C398.195 44.6127 398.108 45.901 398.179 47.1735C398.251 48.4459 398.275 49.6785 398.179 50.9271C398.097 53.1951 397.499 55.4145 396.43 57.4164L396.509 57.4403Z" fill="#263238"/>
<path d="M400.637 58.5779C401.743 56.2866 402.611 53.8884 403.23 51.4206C403.81 48.7167 403.428 45.9253 403.094 43.2055C402.898 41.5779 402.662 39.9503 402.387 38.3226C402.387 38.259 402.267 38.259 402.275 38.3226C402.641 41.0981 402.927 43.8894 403.126 46.6888C403.331 49.2853 403.017 51.8967 402.204 54.371C401.742 55.7866 401.17 57.1624 400.613 58.5302C400.589 58.5859 400.629 58.6018 400.637 58.5779Z" fill="#263238"/>
<path d="M404.939 58.7205C406.045 56.5813 407.023 54.7442 407.325 52.3028C407.593 49.4988 407.51 46.6724 407.079 43.8889C406.872 42.3859 406.617 40.8987 406.339 39.4036C406.339 39.348 406.22 39.4036 406.228 39.4036C406.78 42.7396 407.115 46.1081 407.23 49.4876C407.309 51.0944 407.14 52.7039 406.729 54.2591C406.239 55.7812 405.625 57.2601 404.892 58.6808C404.892 58.6808 404.931 58.7285 404.939 58.7205Z" fill="#263238"/>
<path d="M402.641 71.2222L379.085 74.2124C379.085 74.2124 382.489 92.7499 384.143 97.1238C385.797 101.498 400.295 121.133 406.275 124.958C412.256 128.783 416.614 125.753 413.433 117.005C410.251 108.257 402.999 91.6365 402.617 89.8392C402.235 88.0419 402.641 71.2222 402.641 71.2222Z" fill="#455A64"/>
<path d="M409.838 107.836L394.322 112.202C392.366 109.713 390.489 107.176 388.891 104.886L406.569 99.9072C407.619 102.42 408.749 105.164 409.838 107.836Z" fill="#37474F"/>
<path d="M401.114 77.3854C397.933 77.9262 384.612 79.6837 381.71 79.8746C381.511 79.8746 381.455 79.7633 381.662 79.7235C388.088 78.5491 394.574 77.7261 401.09 77.2582C401.17 77.2502 401.201 77.3695 401.114 77.3854Z" fill="#263238"/>
<path opacity="0.1" d="M406.251 124.934C401.973 122.214 393.328 111.415 388.151 103.836L410.419 109.26C411.58 112.115 412.645 114.826 413.456 117.013C416.645 125.706 412.248 128.736 406.251 124.934Z" fill="black"/>
<path d="M435.167 176.722C435.167 176.722 379.189 175.68 379.085 175.569C378.982 175.457 386.545 127.058 394.02 113.538C396.827 108.448 406.601 108.822 410.267 111.677C419.437 118.811 435.318 173.469 435.167 176.722Z" fill="#455A64"/>
<path d="M433.29 168.57L380.35 167.775C380.652 166.017 381.002 164.029 381.391 161.874L431.596 162.598C432.24 164.809 432.813 166.813 433.29 168.57Z" fill="#37474F"/>
<path d="M434.284 172.355L379.729 171.56C379.825 170.987 379.928 170.351 380.048 169.675L433.799 170.471C433.974 171.139 434.141 171.751 434.284 172.355Z" fill="#37474F"/>
<path d="M396.12 117.761C398.569 118.556 405.798 114.58 407.548 110.755C407.667 110.492 407.086 107.852 406.53 104.607C406.204 102.643 405.877 100.44 405.734 98.4121L393.241 102.428C394.151 104.912 394.754 107.497 395.038 110.126C395.067 110.404 395.067 110.684 395.038 110.961C395.038 111.001 395.038 111.049 395.038 111.104C394.855 112.703 393.296 116.878 396.12 117.761Z" fill="#FBC6BF"/>
<path d="M405.09 98.5869C404.852 101.362 403.5 110.357 396.343 111.049C395.903 111.088 395.462 111.088 395.022 111.049C395.022 110.993 395.022 110.945 395.022 110.906C395.047 110.628 395.047 110.348 395.022 110.07C394.744 107.443 394.143 104.86 393.233 102.38L405.09 98.5869Z" fill="#263238"/>
<path d="M410.665 87.8748C410.816 92.6066 405.098 104.575 401.21 106.54C395.643 109.395 388.135 107.772 386.147 101.426C384.215 95.2707 391.969 79.8029 396.128 78.1885C402.275 75.8187 410.458 80.9004 410.665 87.8748Z" fill="#FBC6BF"/>
<path opacity="0.3" d="M406.872 99.3824C405.082 102.754 402.959 105.689 401.217 106.54C395.603 109.395 388.135 107.772 386.147 101.426C385.455 99.2154 386.004 95.8037 387.197 92.2568C387.873 94.746 391.301 93.911 391.301 93.911L392.748 94.4756C393.432 97.426 397.949 98.4519 400.701 97.7282C402.697 97.2272 405.186 93.7917 405.186 93.7917L406.872 99.3824Z" fill="#263238"/>
<path d="M407.396 98.2454C405.4 98.134 405.011 96.2334 404.828 94.945C404.478 92.2571 407.563 87.9785 407.214 84.8691C407.124 83.9511 406.727 83.0905 406.085 82.4275C405.444 81.7646 404.597 81.3386 403.683 81.2188C402.036 81.1552 399.436 82.4674 398.362 82.0141C397.289 81.5608 397.837 79.0557 397.066 78.833C395.38 78.2525 392.175 81.9505 391.237 83.708C391.237 83.708 394.283 75.2862 402.641 77.3459C410.792 79.3102 411.389 85.4258 411.246 88.0422C411.023 92.9728 407.396 98.2454 407.396 98.2454Z" fill="#263238"/>
<path d="M396 92.0503C396 92.0503 396 92.1219 396 92.1537C395.579 92.9489 395.205 93.9112 395.818 94.5395C395.818 94.5395 395.818 94.5951 395.818 94.5792C394.99 94.0146 395.468 92.7263 396 92.0503Z" fill="#263238"/>
<path d="M397.13 91.5652C398.466 92.106 397.281 94.7463 396.048 94.2373C394.815 93.7283 396.008 91.1119 397.13 91.5652Z" fill="#263238"/>
<path d="M391.499 89.8394C391.499 89.8394 391.412 89.8394 391.404 89.8871C391.062 90.6823 390.529 91.6048 389.67 91.5412C389.67 91.5412 389.67 91.5412 389.67 91.5889C390.617 91.8752 391.308 90.6903 391.499 89.8394Z" fill="#263238"/>
<path d="M391.141 88.6704C389.869 87.9864 388.589 90.571 389.766 91.2072C390.943 91.8435 392.215 89.243 391.141 88.6704Z" fill="#263238"/>
<path d="M399.468 89.8392C399.077 89.7777 398.689 89.6954 398.307 89.5927C397.886 89.5673 397.486 89.4021 397.169 89.1235C397.088 89.0158 397.044 88.8846 397.044 88.7497C397.044 88.6148 397.088 88.4836 397.169 88.3759C397.364 88.1887 397.606 88.0568 397.868 87.9939C398.131 87.931 398.406 87.9393 398.665 88.0181C399.212 88.0982 399.709 88.3823 400.056 88.8133C400.128 88.9148 400.169 89.0347 400.175 89.1588C400.181 89.283 400.151 89.4062 400.089 89.514C400.027 89.6218 399.936 89.7096 399.826 89.7673C399.716 89.8249 399.592 89.8498 399.468 89.8392Z" fill="#263238"/>
<path d="M390.648 86.9286C391.006 87.0941 391.372 87.2402 391.746 87.366C392.111 87.5769 392.536 87.6608 392.955 87.6045C393.082 87.5611 393.192 87.4767 393.267 87.3646C393.341 87.2524 393.377 87.1187 393.368 86.9842C393.311 86.7211 393.184 86.4783 393.001 86.281C392.817 86.0838 392.584 85.9394 392.326 85.8629C391.83 85.6243 391.262 85.5817 390.736 85.7436C390.615 85.7839 390.51 85.8589 390.432 85.9592C390.354 86.0594 390.307 86.1804 390.298 86.307C390.289 86.4336 390.317 86.5601 390.379 86.6707C390.442 86.7813 390.535 86.871 390.648 86.9286Z" fill="#263238"/>
<path d="M394.322 96.4956C393.973 96.7218 393.581 96.8744 393.171 96.9442C392.761 97.0139 392.341 96.9993 391.937 96.9012C391.579 96.8169 391.236 96.6802 390.919 96.4956C390.855 96.466 390.794 96.4314 390.736 96.3923L390.569 96.2809C390.53 96.2528 390.501 96.2128 390.487 96.1669C390.472 96.121 390.473 96.0718 390.489 96.0264L390.537 95.9469V95.8753C390.807 95.2391 391.332 94.2848 391.332 94.2848C391.054 94.2848 389.646 94.2848 389.813 93.9747C391.152 91.1653 392.775 88.5005 394.656 86.0221C394.67 86.0094 394.688 86.0016 394.707 85.9999C394.726 85.9981 394.745 86.0025 394.761 86.0124C394.777 86.0222 394.789 86.037 394.796 86.0545C394.803 86.072 394.804 86.0913 394.8 86.1095C393.567 88.7021 391.897 91.064 390.624 93.6486C391.127 93.6416 391.627 93.7059 392.112 93.8395C392.191 93.9031 391.141 95.6129 391.046 95.9151C391.538 96.1971 392.081 96.3769 392.644 96.4439C393.207 96.5108 393.778 96.4635 394.322 96.3048C394.378 96.3684 394.418 96.4479 394.322 96.4956Z" fill="#263238"/>
<path d="M391.42 96.3447C391.569 96.9399 391.867 97.4873 392.287 97.9352C392.522 98.178 392.828 98.3396 393.161 98.3965C393.885 98.5158 394.171 97.9273 394.283 97.3627C394.34 97.0615 394.359 96.7541 394.338 96.4481C393.379 96.725 392.357 96.6888 391.42 96.3447Z" fill="#263238"/>
<path d="M392.287 97.9588C392.522 98.2016 392.828 98.3631 393.162 98.42C393.885 98.5393 394.172 97.9508 394.283 97.3862C393.934 97.2423 393.547 97.2205 393.185 97.3245C392.823 97.4285 392.506 97.652 392.287 97.9588Z" fill="#FF9CBD"/>
<path d="M394.832 96.4715C394.021 95.9118 393.465 95.0533 393.286 94.0842C393.107 93.1152 393.32 92.1148 393.877 91.3023C394.269 90.7261 394.815 90.2716 395.452 89.9908C396.09 89.71 396.793 89.6142 397.483 89.7143C398.172 89.8145 398.82 90.1065 399.351 90.5571C399.882 91.0076 400.276 91.5986 400.488 92.2623C400.699 92.9261 400.72 93.636 400.547 94.3109C400.374 94.9858 400.015 95.5985 399.51 96.079C399.006 96.5594 398.376 96.8883 397.694 97.0281C397.011 97.1678 396.303 97.1127 395.651 96.8692C395.363 96.7684 395.089 96.635 394.832 96.4715ZM394.283 91.5807C393.917 92.1027 393.714 92.7216 393.7 93.3589C393.687 93.9962 393.862 94.6233 394.205 95.1608C394.548 95.6983 395.042 96.122 395.626 96.3782C396.209 96.6345 396.856 96.7118 397.484 96.6003C398.111 96.4888 398.692 96.1936 399.152 95.752C399.611 95.3104 399.93 94.7423 400.066 94.1197C400.203 93.497 400.152 92.8479 399.919 92.2543C399.687 91.6608 399.283 91.1496 398.76 90.7854C398.543 90.631 398.304 90.5079 398.052 90.4196C397.389 90.1791 396.666 90.1624 395.992 90.3721C395.318 90.5818 394.732 91.0063 394.323 91.5807H394.283Z" fill="#263238"/>
<path d="M387.849 92.8929C386.489 92.201 386.139 90.1572 387.054 88.3281C387.46 87.4961 388.116 86.8121 388.93 86.3717C389.268 86.159 389.655 86.0373 390.053 86.0186C390.451 86 390.848 86.0849 391.203 86.2652C391.559 86.4455 391.862 86.7149 392.083 87.0472C392.303 87.3794 392.434 87.7632 392.461 88.1611C392.586 89.0797 392.419 90.0143 391.984 90.8331C391.11 92.5668 389.4 93.4814 388.064 92.9962L387.849 92.8929ZM389.161 86.8091C388.443 87.2053 387.866 87.8136 387.507 88.5507C386.712 90.1413 386.958 91.8829 388.072 92.4555C389.185 93.028 390.752 92.193 391.555 90.6105C391.943 89.8793 392.093 89.0452 391.984 88.2247C391.952 87.9094 391.845 87.6063 391.673 87.3406C391.5 87.075 391.266 86.8546 390.99 86.6978L390.815 86.6182C390.541 86.5332 390.253 86.5062 389.968 86.5391C389.683 86.5719 389.408 86.6639 389.161 86.8091Z" fill="#263238"/>
<path d="M393.79 91.7399L394.251 91.549C393.964 90.8651 393.09 89.7119 391.865 90.1652L392.032 90.6344C393.129 90.2209 393.766 91.6762 393.79 91.7399Z" fill="#263238"/>
<path d="M408.12 100.09H408.637C408.637 99.8597 408.589 97.8079 407.683 97.1478C406.776 96.4878 400.613 94.0702 400.351 93.9668L400.168 94.428C401.957 95.1358 406.736 97.0683 407.397 97.5455C408.057 98.0226 408.12 99.5257 408.12 100.09Z" fill="#263238"/>
<path d="M404.351 95.7797C404.351 95.7797 408.375 92.5589 409.917 94.1096C411.46 95.6604 407.603 100.909 405.209 101.084C404.904 101.126 404.592 101.106 404.294 101.025C403.996 100.943 403.718 100.803 403.476 100.611C403.233 100.419 403.033 100.181 402.885 99.9095C402.737 99.6381 402.646 99.3398 402.617 99.0323L404.351 95.7797Z" fill="#FBC6BF"/>
<path d="M408.772 95.589C408.772 95.589 408.772 95.6447 408.772 95.6526C407.078 95.8196 405.87 96.9887 404.884 98.277C405.016 98.1522 405.175 98.0575 405.348 97.9996C405.521 97.9417 405.704 97.9219 405.885 97.9416C406.067 97.9612 406.242 98.0198 406.398 98.1134C406.555 98.207 406.689 98.3333 406.792 98.4838C406.792 98.4838 406.792 98.5712 406.729 98.5474C406.49 98.3928 406.211 98.3139 405.927 98.321C405.643 98.3281 405.368 98.4209 405.138 98.5872C404.747 98.8783 404.39 99.2116 404.072 99.5812C403.961 99.6926 403.738 99.5812 403.834 99.4063C404.351 97.434 406.641 95.1755 408.772 95.589Z" fill="#263238"/>
<path d="M398.132 127.01C387.26 124.942 366.051 115.685 362.743 113.267C355.808 108.21 341.636 83.3338 342.861 79.3336C343.521 77.1308 362.409 76.3276 364.333 77.8465C366.258 79.3654 374.671 98.0143 375.745 99.5333C376.819 101.052 398.179 115.335 402.879 119.415C411.341 126.795 405.209 128.361 398.132 127.01Z" fill="#FBC6BF"/>
<path d="M363.029 84.7259C363.029 84.7259 367.005 77.5685 369.391 72.797C370.711 70.1249 372.572 65.3295 372.636 62.9198C372.747 59.3173 370.886 44.1755 367.204 44.5493C363.872 44.8833 367.117 57.687 367.117 57.687C367.117 57.687 364.985 44.4777 361.041 45.6229C357.096 46.7681 362.703 60.7328 362.703 60.7328C362.703 60.7328 360.206 47.2134 356.341 49.0266C353.414 50.4024 357.772 63.3413 357.772 63.3413C357.772 63.3413 355.546 51.7305 352.468 53.0029C349.072 54.4185 352.349 66.6257 352.349 66.6257C345.088 71.2064 342.177 74.4113 342.805 80.1452C342.861 81.0915 363.029 84.7259 363.029 84.7259Z" fill="#FBC6BF"/>
<path d="M368.476 63.2935C368.278 61.7029 368.095 60.1124 367.761 58.6173C367.427 57.1222 367.037 55.5476 366.568 54.0446C365.983 52.0753 365.183 50.1764 364.182 48.3823C365.773 51.6906 367.021 57.1859 367.363 58.7207C367.705 60.2556 368.111 61.7745 368.445 63.3094C368.429 63.3491 368.476 63.3332 368.476 63.2935Z" fill="#263238"/>
<path d="M362.941 64.5979C362.607 62.6177 362.345 60.6215 361.924 58.6652C361.502 56.7089 360.818 53.9811 360.269 52.0566C360.222 51.9134 359.991 51.9134 360.031 52.0566C360.508 53.997 361.073 56.8281 361.526 58.7606C361.979 60.6931 362.512 62.6415 362.894 64.6058C362.902 64.6456 362.949 64.6297 362.941 64.5979Z" fill="#263238"/>
<path d="M358.393 66.5699C357.957 63.5181 357.205 60.5198 356.15 57.6232C356.102 57.4801 356.031 57.5755 356.07 57.7266C356.866 60.6929 357.526 63.0071 358.297 66.5858C358.297 66.6415 358.4 66.6335 358.393 66.5699Z" fill="#263238"/>
<path d="M344.46 88.8689L368.381 81.6479C368.381 81.6479 374.894 97.4577 375.928 98.8654C376.962 100.273 400.152 115.415 404.78 119.216C409.409 123.017 408.645 130.135 398.705 128.234C390.132 126.596 366.894 117.101 362.552 114.198C358.21 111.295 344.46 88.8689 344.46 88.8689Z" fill="#455A64"/>
<path d="M393.734 111.375L384.835 123.916C382.115 122.906 379.324 121.817 376.66 120.735L386.712 106.58C388.994 108.13 391.42 109.784 393.734 111.375Z" fill="#37474F"/>
<path d="M349.692 93.561C352.969 92.6783 366.242 88.5668 369.049 87.4773C369.248 87.4057 369.248 87.2626 369.049 87.3182C359.164 89.704 352.85 92.3999 349.676 93.4338C349.581 93.4576 349.613 93.5849 349.692 93.561Z" fill="#263238"/>
<path d="M386.044 124.346C389.958 125.222 393.774 126.493 397.432 128.139C393.517 127.263 389.702 125.992 386.044 124.346Z" fill="#263238"/>
<path d="M393.36 126.827C394.227 127.304 395.42 127.892 396.239 128.417C395.672 128.378 395.121 128.216 394.623 127.941C394.126 127.666 393.695 127.286 393.36 126.827Z" fill="#263238"/>
<path d="M404.78 119.216C402.549 118.099 400.517 116.621 398.768 114.842C401 115.958 403.031 117.436 404.78 119.216Z" fill="#263238"/>
</svg>
