<svg width="797" height="539" viewBox="0 0 797 539" fill="none" xmlns="http://www.w3.org/2000/svg">
<g style="mix-blend-mode:luminosity">
<path d="M788.547 170.422C781.216 167.179 777.866 169.887 775.206 167.179C772.545 164.471 782.536 157.596 762.534 150.672C762.534 150.672 761.193 135.77 733.86 135.235C706.526 134.699 713.857 150.137 706.526 153.866C699.195 157.596 697.185 151.742 689.854 155.488C682.523 159.233 685.792 166.66 679.862 167.73C674.379 168.703 667.252 163.936 660.469 165.914C658.206 159.887 655.071 154.092 651.127 148.645C626.373 114.706 572.396 99.0579 530.136 89.507C395.64 59.1354 363.108 133.71 279.746 174.784C196.384 215.858 98.4013 178.027 50.8008 207.523C3.2003 237.019 -12.6801 310.297 10.5516 344.09C33.7832 377.883 85.1609 388.893 93.1011 405.092C101.041 421.292 98.5637 426.594 98.5637 426.594H722C726.874 426.594 739.749 405.757 742.308 401.703C756.685 378.661 758.432 355.797 733.19 338.09C708.821 320.999 666.683 310.248 663.718 278.482C660.753 246.716 670.947 210.604 664.063 178.384H793.827C793.827 178.384 795.878 173.617 788.547 170.422ZM275.482 355.133H106.788C106.788 355.133 111.459 352.473 115.459 350.268C119.46 348.063 126.121 350.268 129.451 350.268C132.782 350.268 132.782 347.025 140.133 343.36C147.484 339.695 155.465 345.484 161.456 344.414C167.446 343.344 164.136 335.901 171.467 332.172C178.798 328.442 180.809 334.296 188.14 330.55C195.471 326.804 188.14 311.367 215.473 311.902C242.807 312.437 244.147 327.356 244.147 327.356C264.15 334.263 254.139 341.187 256.819 343.847C259.5 346.506 262.81 343.847 270.161 347.09C277.512 350.333 275.482 355.133 275.482 355.133ZM549.083 118.014H440.824C440.824 118.014 443.809 116.392 446.388 114.949C448.967 113.506 453.232 114.949 455.364 114.949C457.497 114.949 457.517 112.89 462.208 110.506C466.899 108.122 472.057 111.868 475.915 111.187C479.774 110.506 477.621 105.722 482.333 103.323C487.044 100.923 488.323 104.685 493.035 102.301C497.746 99.9173 493.035 89.9934 510.58 90.3339C528.126 90.6745 528.979 100.242 528.979 100.242C541.813 104.685 535.396 109.128 537.102 110.847C538.807 112.565 540.96 110.847 545.671 112.89C550.383 114.933 549.083 118.014 549.083 118.014Z" fill="#98A1AB"/>
<path d="M349.908 35.2012C342.557 31.9581 339.227 34.666 336.566 31.9581C333.906 29.2501 343.897 22.3747 323.895 15.4507C323.895 15.4507 322.554 0.548689 295.22 0.0135787C267.887 -0.521532 275.218 14.9156 267.887 18.6452C260.556 22.3747 258.545 16.5209 251.214 20.2667C243.883 24.0125 247.153 31.4392 241.203 32.5094C235.253 33.5796 227.211 27.6447 219.88 31.4392C212.549 35.2336 212.529 38.3632 209.198 38.3632C205.868 38.3632 199.207 36.2389 195.207 38.3632C191.206 40.4874 186.535 43.2278 186.535 43.2278H355.229C355.229 43.2278 357.239 38.4443 349.908 35.2012Z" fill="#98A1AB"/>
<g opacity="0.7">
<path d="M788.547 170.422C781.216 167.179 777.866 169.887 775.206 167.179C772.545 164.471 782.536 157.596 762.534 150.672C762.534 150.672 761.193 135.77 733.86 135.235C706.526 134.699 713.857 150.137 706.526 153.866C699.195 157.596 697.185 151.742 689.854 155.488C682.523 159.233 685.792 166.66 679.862 167.73C674.379 168.703 667.252 163.936 660.469 165.914C658.206 159.887 655.071 154.092 651.127 148.645C626.373 114.706 572.396 99.0579 530.136 89.507C395.64 59.1354 363.108 133.71 279.746 174.784C196.384 215.858 98.4013 178.027 50.8008 207.523C3.2003 237.019 -12.6801 310.297 10.5516 344.09C33.7832 377.883 85.1609 388.893 93.1011 405.092C101.041 421.292 98.5637 426.594 98.5637 426.594H722C726.874 426.594 739.749 405.757 742.308 401.703C756.685 378.661 758.432 355.797 733.19 338.09C708.821 320.999 666.683 310.248 663.718 278.482C660.753 246.716 670.947 210.604 664.063 178.384H793.827C793.827 178.384 795.878 173.617 788.547 170.422ZM275.482 355.133H106.788C106.788 355.133 111.459 352.473 115.459 350.268C119.46 348.063 126.121 350.268 129.451 350.268C132.782 350.268 132.782 347.025 140.133 343.36C147.484 339.695 155.465 345.484 161.456 344.414C167.446 343.344 164.136 335.901 171.467 332.172C178.798 328.442 180.809 334.296 188.14 330.55C195.471 326.804 188.14 311.367 215.473 311.902C242.807 312.437 244.147 327.356 244.147 327.356C264.15 334.263 254.139 341.187 256.819 343.847C259.5 346.506 262.81 343.847 270.161 347.09C277.512 350.333 275.482 355.133 275.482 355.133ZM549.083 118.014H440.824C440.824 118.014 443.809 116.392 446.388 114.949C448.967 113.506 453.232 114.949 455.364 114.949C457.497 114.949 457.517 112.89 462.208 110.506C466.899 108.122 472.057 111.868 475.915 111.187C479.774 110.506 477.621 105.722 482.333 103.323C487.044 100.923 488.323 104.685 493.035 102.301C497.746 99.9173 493.035 89.9934 510.58 90.3339C528.126 90.6745 528.979 100.242 528.979 100.242C541.813 104.685 535.396 109.128 537.102 110.847C538.807 112.565 540.96 110.847 545.671 112.89C550.383 114.933 549.083 118.014 549.083 118.014Z" fill="white"/>
<path d="M349.908 35.2012C342.557 31.9581 339.227 34.666 336.566 31.9581C333.906 29.2501 343.897 22.3747 323.895 15.4507C323.895 15.4507 322.554 0.548689 295.22 0.0135787C267.887 -0.521532 275.218 14.9156 267.887 18.6452C260.556 22.3747 258.545 16.5209 251.214 20.2667C243.883 24.0125 247.153 31.4392 241.203 32.5094C235.253 33.5796 227.211 27.6447 219.88 31.4392C212.549 35.2336 212.529 38.3632 209.198 38.3632C205.868 38.3632 199.207 36.2389 195.207 38.3632C191.206 40.4874 186.535 43.2278 186.535 43.2278H355.229C355.229 43.2278 357.239 38.4442 349.908 35.2012Z" fill="white"/>
</g>
<path d="M776.18 321.923L796 364.326H782.496L768.991 331.263L776.18 321.923Z" fill="white" stroke="#2E353A" stroke-width="0.887535" stroke-linecap="round" stroke-linejoin="round"/>
<path d="M786.984 426.627H608.462V353.787L774.21 333.566L786.984 361.684V426.627Z" fill="#2E353A"/>
<path d="M633.054 206.194H400.21V426.627H633.054V206.194Z" fill="#2E353A"/>
<path d="M385.873 224.014L375.963 213.766L517.931 126.251L657.301 212.177L647.411 222.425L517.931 142.596L385.873 224.014Z" fill="#2E353A"/>
<path d="M590.449 206.194H357.605V426.627H590.449V206.194Z" fill="white" stroke="#2E353A" stroke-width="0.887535" stroke-linecap="round" stroke-linejoin="round"/>
<path d="M474.027 134.423L357.605 206.193H590.449L474.027 134.423Z" fill="white" stroke="#2E353A" stroke-width="0.887535" stroke-linejoin="round"/>
<g style="mix-blend-mode:multiply">
<path d="M474.027 134.423L357.605 206.193V222.538L384.126 206.193L474.027 150.769L563.948 206.193L590.449 222.538V206.193L474.027 134.423Z" fill="#80BBFF"/>
</g>
<path d="M768.991 353.787H590.449V426.627H768.991V353.787Z" fill="white" stroke="#2E353A" stroke-width="0.887535" stroke-linecap="round" stroke-linejoin="round"/>
<path d="M750.999 353.787H608.462V426.627H750.999V353.787Z" fill="#80BBFF" stroke="#2E353A" stroke-width="0.887535" stroke-linecap="round" stroke-linejoin="round"/>
<g style="mix-blend-mode:multiply">
<path d="M768.991 353.787H590.449V369.403H768.991V353.787Z" fill="#80BBFF"/>
</g>
<path d="M608.462 375.11H750.979" stroke="#2E353A" stroke-width="0.887535" stroke-linecap="round" stroke-linejoin="round"/>
<path d="M608.462 385.893H750.979" stroke="#2E353A" stroke-width="0.887535" stroke-linecap="round" stroke-linejoin="round"/>
<path d="M608.462 396.677H750.979" stroke="#2E353A" stroke-width="0.887535" stroke-linecap="round" stroke-linejoin="round"/>
<path d="M608.462 407.46H750.979" stroke="#2E353A" stroke-width="0.887535" stroke-linecap="round" stroke-linejoin="round"/>
<path d="M608.462 418.243H750.979" stroke="#2E353A" stroke-width="0.887535" stroke-linecap="round" stroke-linejoin="round"/>
<path d="M423.624 345.16H376.816V426.627H423.624V345.16Z" fill="#2E353A"/>
<path d="M495.025 345.16H448.216V401.704H495.025V345.16Z" fill="white" stroke="#2E353A" stroke-width="0.887535" stroke-linecap="round" stroke-linejoin="round"/>
<path d="M495.025 371.04H448.216V375.84H495.025V371.04Z" fill="#2E353A"/>
<path d="M474.636 345.16H468.625V401.704H474.636V345.16Z" fill="#2E353A"/>
<path d="M580.843 345.16H534.035V401.704H580.843V345.16Z" fill="white" stroke="#2E353A" stroke-width="0.887535" stroke-linecap="round" stroke-linejoin="round"/>
<path d="M580.843 371.04H534.035V375.84H580.843V371.04Z" fill="#2E353A"/>
<path d="M560.455 345.16H554.444V401.704H560.455V345.16Z" fill="#2E353A"/>
<path d="M520.531 345.16H511.555V426.627H520.531V345.16Z" fill="white" stroke="#2E353A" stroke-width="0.887535" stroke-linecap="round" stroke-linejoin="round"/>
<path d="M442.063 345.16H433.087V426.627H442.063V345.16Z" fill="white" stroke="#2E353A" stroke-width="0.887535" stroke-linecap="round" stroke-linejoin="round"/>
<path d="M580.843 348.517H368.408V359.057H580.843V348.517Z" fill="#2E353A"/>
<path d="M580.843 343.247H368.408V353.787H580.843V343.247Z" fill="#80BBFF" stroke="#2E353A" stroke-width="0.887535" stroke-linecap="round" stroke-linejoin="round"/>
<path d="M341.968 224.014L332.058 213.766L474.027 126.251L613.396 212.177L603.506 222.425L474.027 142.596L341.968 224.014Z" fill="white" stroke="#2E353A" stroke-width="0.887535" stroke-linejoin="round"/>
<path d="M768.992 364.326H572.701L590.713 321.923H776.18L768.992 364.326Z" fill="#2E353A"/>
<path d="M613.396 212.177H653.605L517.932 126.251H474.027L613.396 212.177Z" fill="#2E353A"/>
<path d="M603.507 222.425H647.411L657.301 212.177H613.397L603.507 222.425Z" fill="#2E353A"/>
<path d="M402.017 238.787H376.816V271.38H402.017V238.787Z" fill="white" stroke="#2E353A" stroke-width="0.887535" stroke-linecap="round" stroke-linejoin="round"/>
<path d="M402.017 255.083H376.816V271.38H402.017V255.083Z" fill="#2E353A"/>
<path d="M402.017 253.267H376.816V256.899H402.017V253.267Z" fill="white" stroke="#2E353A" stroke-width="0.887535" stroke-linecap="round" stroke-linejoin="round"/>
<path d="M402.017 285.747H376.816V318.34H402.017V285.747Z" fill="white" stroke="#2E353A" stroke-width="0.887535" stroke-linecap="round" stroke-linejoin="round"/>
<path d="M402.017 301.881H376.816V318.323H402.017V301.881Z" fill="#2E353A"/>
<path d="M572.436 238.787H547.235V271.38H572.436V238.787Z" fill="white" stroke="#2E353A" stroke-width="0.887535" stroke-linecap="round" stroke-linejoin="round"/>
<path d="M572.436 255.083H547.235V271.38H572.436V255.083Z" fill="#2E353A"/>
<path d="M572.437 285.747H547.235V318.34H572.437V285.747Z" fill="white" stroke="#2E353A" stroke-width="0.887535" stroke-linecap="round" stroke-linejoin="round"/>
<path d="M572.436 300.065H547.235V318.324H572.436V300.065Z" fill="#2E353A"/>
<path d="M484.221 238.787H459.02V271.38H484.221V238.787Z" fill="white" stroke="#2E353A" stroke-width="0.887535" stroke-linecap="round" stroke-linejoin="round"/>
<path d="M484.221 255.083H459.02V271.38H484.221V255.083Z" fill="#2E353A"/>
<path d="M484.221 285.747H459.02V318.34H484.221V285.747Z" fill="white" stroke="#2E353A" stroke-width="0.887535" stroke-linecap="round" stroke-linejoin="round"/>
<path d="M484.221 300.065H459.02V318.324H484.221V300.065Z" fill="#2E353A"/>
<path d="M484.221 253.267H459.02V256.899H484.221V253.267Z" fill="white" stroke="#2E353A" stroke-width="0.887535" stroke-linecap="round" stroke-linejoin="round"/>
<path d="M572.436 253.267H547.235V256.899H572.436V253.267Z" fill="white" stroke="#2E353A" stroke-width="0.887535" stroke-linecap="round" stroke-linejoin="round"/>
<path d="M402.017 298.249H376.816V301.881H402.017V298.249Z" fill="white" stroke="#2E353A" stroke-width="0.887535" stroke-linecap="round" stroke-linejoin="round"/>
<path d="M484.221 298.249H459.02V301.881H484.221V298.249Z" fill="white" stroke="#2E353A" stroke-width="0.887535" stroke-linecap="round" stroke-linejoin="round"/>
<path d="M572.436 298.249H547.235V301.881H572.436V298.249Z" fill="white" stroke="#2E353A" stroke-width="0.887535" stroke-linecap="round" stroke-linejoin="round"/>
<path d="M378.135 216.02V224.014" stroke="#2E353A" stroke-width="0.887535" stroke-linecap="round" stroke-linejoin="round"/>
<path d="M396.148 216.02V224.014" stroke="#2E353A" stroke-width="0.887535" stroke-linecap="round" stroke-linejoin="round"/>
<path d="M385.873 224.014V232.008" stroke="#2E353A" stroke-width="0.887535" stroke-linecap="round" stroke-linejoin="round"/>
<path d="M406.444 224.014V232.008" stroke="#2E353A" stroke-width="0.887535" stroke-linecap="round" stroke-linejoin="round"/>
<path d="M370.155 224.014H411.297" stroke="#2E353A" stroke-width="0.887535" stroke-linecap="round" stroke-linejoin="round"/>
<path d="M378.135 322.799V330.793" stroke="#2E353A" stroke-width="0.887535" stroke-linecap="round" stroke-linejoin="round"/>
<path d="M396.148 322.799V330.793" stroke="#2E353A" stroke-width="0.887535" stroke-linecap="round" stroke-linejoin="round"/>
<path d="M385.873 330.793V338.788" stroke="#2E353A" stroke-width="0.887535" stroke-linecap="round" stroke-linejoin="round"/>
<path d="M406.444 330.793V338.788" stroke="#2E353A" stroke-width="0.887535" stroke-linecap="round" stroke-linejoin="round"/>
<path d="M370.155 330.793H411.297" stroke="#2E353A" stroke-width="0.887535" stroke-linecap="round" stroke-linejoin="round"/>
<path d="M414.628 247.073V255.083" stroke="#2E353A" stroke-width="0.887535" stroke-linecap="round" stroke-linejoin="round"/>
<path d="M432.641 247.073V255.083" stroke="#2E353A" stroke-width="0.887535" stroke-linecap="round" stroke-linejoin="round"/>
<path d="M422.365 255.083V263.078" stroke="#2E353A" stroke-width="0.887535" stroke-linecap="round" stroke-linejoin="round"/>
<path d="M442.936 255.083V263.078" stroke="#2E353A" stroke-width="0.887535" stroke-linecap="round" stroke-linejoin="round"/>
<path d="M406.647 255.083H447.79" stroke="#2E353A" stroke-width="0.887535" stroke-linecap="round" stroke-linejoin="round"/>
<path d="M414.628 263.078H447.79" stroke="#2E353A" stroke-width="0.887535" stroke-linecap="round" stroke-linejoin="round"/>
<path d="M414.628 263.37V271.364" stroke="#2E353A" stroke-width="0.887535" stroke-linecap="round" stroke-linejoin="round"/>
<path d="M432.641 263.37V271.364" stroke="#2E353A" stroke-width="0.887535" stroke-linecap="round" stroke-linejoin="round"/>
<path d="M422.365 271.364V279.358" stroke="#2E353A" stroke-width="0.887535" stroke-linecap="round" stroke-linejoin="round"/>
<path d="M442.936 271.364V279.358" stroke="#2E353A" stroke-width="0.887535" stroke-linecap="round" stroke-linejoin="round"/>
<path d="M406.647 271.364H447.79" stroke="#2E353A" stroke-width="0.887535" stroke-linecap="round" stroke-linejoin="round"/>
<path d="M504.346 300.421V308.415" stroke="#2E353A" stroke-width="0.887535" stroke-linecap="round" stroke-linejoin="round"/>
<path d="M522.359 300.421V308.415" stroke="#2E353A" stroke-width="0.887535" stroke-linecap="round" stroke-linejoin="round"/>
<path d="M512.083 308.416V316.41" stroke="#2E353A" stroke-width="0.887535" stroke-linecap="round" stroke-linejoin="round"/>
<path d="M532.654 308.416V316.41" stroke="#2E353A" stroke-width="0.887535" stroke-linecap="round" stroke-linejoin="round"/>
<path d="M496.365 308.416H537.508" stroke="#2E353A" stroke-width="0.887535" stroke-linecap="round" stroke-linejoin="round"/>
<path d="M504.346 316.41H537.508" stroke="#2E353A" stroke-width="0.887535" stroke-linecap="round" stroke-linejoin="round"/>
<path d="M504.346 316.718V324.713" stroke="#2E353A" stroke-width="0.887535" stroke-linecap="round" stroke-linejoin="round"/>
<path d="M522.359 316.718V324.713" stroke="#2E353A" stroke-width="0.887535" stroke-linecap="round" stroke-linejoin="round"/>
<path d="M512.083 324.712V332.707" stroke="#2E353A" stroke-width="0.887535" stroke-linecap="round" stroke-linejoin="round"/>
<path d="M532.654 324.712V332.707" stroke="#2E353A" stroke-width="0.887535" stroke-linecap="round" stroke-linejoin="round"/>
<path d="M496.365 324.712H537.508" stroke="#2E353A" stroke-width="0.887535" stroke-linecap="round" stroke-linejoin="round"/>
<path d="M21.2738 449.214C61.1981 462.398 163.791 448.128 153.272 463.5C142.753 478.872 62.3963 473.1 39.5505 489.721C16.7047 506.341 120.638 505.012 116.962 510.055C113.287 515.098 21.8424 518.552 27.8534 525.346H644.02C645.015 520.027 637.928 513.574 626.352 509.13C534.604 506.131 223.698 495.137 256.271 484.515C294.449 472.094 419.095 459.673 441.88 449.944C464.665 440.215 363.737 439.128 346.842 434.815C341.399 433.42 340.75 432.058 342.516 430.875L345.42 431.021V429.545C350.035 428.21 354.793 427.217 359.635 426.578H345.42V423.772L343.389 424.794L339.917 426.578H338.8C340.223 423.066 341.189 419.447 341.684 415.778C342.476 409.438 331.327 423.772 331.327 423.772C331.327 423.772 332.911 418.908 331.327 415.778C329.743 412.648 324.95 420.01 324.95 420.01C324.95 420.01 330.535 402.416 324.95 390.985C319.366 379.553 313.071 420.01 313.071 420.01C313.071 420.01 312.218 404.314 305.049 404.006C299.241 403.746 302.836 414.416 304.42 418.47C303.191 416.195 301.378 414.151 299.099 412.47C293.961 408.546 299.099 421.535 299.099 421.535C299.099 421.535 297.068 417.675 283.645 415.778C270.222 413.881 289.128 424.178 289.128 424.178C283.309 422.844 277.405 421.762 271.44 420.935C268.476 420.545 268.232 421.129 269.207 422.102L267.277 423.091L261.063 426.334C263.099 421.573 264.461 416.646 265.125 411.643C266.14 403.535 251.945 421.826 251.945 421.826C251.945 421.826 253.976 415.681 251.945 411.643C249.915 407.605 243.822 417.027 243.822 417.027C243.822 417.027 250.93 394.633 243.822 380.072C236.715 365.51 228.693 417.027 228.693 417.027C228.693 417.027 227.597 397.065 218.54 396.66C211.168 396.336 215.697 409.811 217.727 415.016C216.165 412.145 213.868 409.565 210.985 407.443C204.426 402.449 210.985 418.973 210.985 418.973C210.985 418.973 208.406 414.108 191.307 411.643C174.209 409.178 198.273 422.345 198.273 422.345C190.865 420.649 183.347 419.274 175.752 418.227C164.38 416.735 184.403 426.61 184.403 426.61H33.4583C33.4583 426.61 -18.6099 436.047 21.2738 449.214ZM269.877 422.751C271.914 424.191 274.094 425.498 276.395 426.659H269.877V422.751Z" fill="#2E353A"/>
<path d="M513.87 451.176C490.801 459.706 433.514 468.656 433.514 468.656C424.396 469.646 436.743 478.97 500.061 474.348L608.421 426.626H400.778C407.723 429.48 457.192 436.063 485.338 436.063C513.484 436.063 536.939 442.631 513.87 451.176Z" fill="#2E353A"/>
<path d="M679.761 426.626H720.7C700.149 425.993 679.761 426.626 679.761 426.626Z" fill="#2E353A"/>
<path d="M747.303 428.523L650.051 478.564C662.378 478.191 675.273 477.948 687.762 477.705C741.637 476.667 722.081 458.003 725.737 451.42C729.392 444.836 759.975 445.923 762.412 434.945C763.102 431.831 756.746 429.821 747.303 428.523Z" fill="#2E353A"/>
<g opacity="0.3">
<path d="M21.2738 449.214C61.1981 462.398 163.791 448.128 153.272 463.5C142.753 478.872 62.3963 473.1 39.5505 489.721C16.7047 506.341 120.638 505.012 116.962 510.055C113.287 515.098 21.8424 518.552 27.8534 525.346H644.02C645.015 520.027 637.928 513.574 626.352 509.13C534.604 506.131 223.698 495.137 256.271 484.515C294.449 472.094 419.095 459.673 441.88 449.944C464.665 440.215 363.737 439.128 346.842 434.815C341.399 433.42 340.75 432.058 342.516 430.875L345.42 431.021V429.545C350.035 428.21 354.793 427.217 359.635 426.578H345.42V423.772L343.389 424.794L339.917 426.578H338.8C340.223 423.066 341.189 419.447 341.684 415.778C342.476 409.438 331.327 423.772 331.327 423.772C331.327 423.772 332.911 418.908 331.327 415.778C329.743 412.648 324.95 420.01 324.95 420.01C324.95 420.01 330.535 402.416 324.95 390.985C319.366 379.553 313.071 420.01 313.071 420.01C313.071 420.01 312.218 404.314 305.049 404.006C299.241 403.746 302.836 414.416 304.42 418.47C303.191 416.195 301.378 414.151 299.099 412.47C293.961 408.546 299.099 421.535 299.099 421.535C299.099 421.535 297.068 417.675 283.645 415.778C270.222 413.881 289.128 424.178 289.128 424.178C283.309 422.844 277.405 421.762 271.44 420.935C268.476 420.545 268.232 421.129 269.207 422.102L267.277 423.091L261.063 426.334C263.099 421.573 264.461 416.646 265.125 411.643C266.14 403.535 251.945 421.826 251.945 421.826C251.945 421.826 253.976 415.681 251.945 411.643C249.915 407.605 243.822 417.027 243.822 417.027C243.822 417.027 250.93 394.633 243.822 380.072C236.715 365.51 228.693 417.027 228.693 417.027C228.693 417.027 227.597 397.065 218.54 396.66C211.168 396.336 215.697 409.811 217.727 415.016C216.165 412.145 213.868 409.565 210.985 407.443C204.426 402.449 210.985 418.973 210.985 418.973C210.985 418.973 208.406 414.108 191.307 411.643C174.209 409.178 198.273 422.345 198.273 422.345C190.865 420.649 183.347 419.274 175.752 418.227C164.38 416.735 184.403 426.61 184.403 426.61H33.4583C33.4583 426.61 -18.6099 436.047 21.2738 449.214ZM269.877 422.751C271.914 424.191 274.094 425.498 276.395 426.659H269.877V422.751Z" fill="white"/>
<path d="M513.87 451.176C490.801 459.706 433.514 468.656 433.514 468.656C424.396 469.646 436.743 478.97 500.061 474.348L608.421 426.626H400.778C407.723 429.48 457.192 436.063 485.338 436.063C513.484 436.063 536.939 442.631 513.87 451.176Z" fill="white"/>
<path d="M679.761 426.626H720.7C700.149 425.993 679.761 426.626 679.761 426.626Z" fill="white"/>
<path d="M747.303 428.523L650.051 478.564C662.378 478.191 675.273 477.948 687.762 477.705C741.637 476.667 722.081 458.003 725.737 451.42C729.392 444.836 759.975 445.923 762.412 434.945C763.102 431.831 756.746 429.821 747.303 428.523Z" fill="white"/>
</g>
<path d="M151.871 153.898V284.692H390.137V153.898H151.871ZM174.006 169.968C172.704 169.968 171.432 169.66 170.35 169.083C169.268 168.505 168.425 167.685 167.927 166.725C167.429 165.765 167.299 164.708 167.553 163.689C167.806 162.67 168.433 161.734 169.353 160.999C170.273 160.264 171.446 159.764 172.722 159.561C173.998 159.359 175.321 159.463 176.524 159.86C177.726 160.258 178.753 160.931 179.476 161.795C180.199 162.659 180.585 163.675 180.585 164.714C180.585 166.108 179.892 167.444 178.658 168.429C177.424 169.414 175.751 169.968 174.006 169.968ZM367.779 169.968C366.477 169.968 365.205 169.66 364.123 169.083C363.041 168.505 362.198 167.685 361.7 166.725C361.202 165.765 361.072 164.708 361.326 163.689C361.579 162.67 362.206 161.734 363.126 160.999C364.046 160.264 365.219 159.764 366.495 159.561C367.771 159.359 369.094 159.463 370.297 159.86C371.499 160.258 372.526 160.931 373.249 161.795C373.972 162.659 374.358 163.675 374.358 164.714C374.353 166.106 373.658 167.44 372.425 168.424C371.192 169.409 369.522 169.964 367.779 169.968Z" fill="#80BBFF" stroke="#2E353A" stroke-miterlimit="10"/>
<path d="M374.358 164.714C374.358 165.753 373.972 166.769 373.249 167.633C372.526 168.497 371.499 169.171 370.297 169.568C369.094 169.966 367.771 170.07 366.495 169.867C365.219 169.664 364.046 169.164 363.126 168.429C362.206 167.695 361.579 166.758 361.325 165.739C361.072 164.72 361.202 163.664 361.7 162.704C362.198 161.744 363.041 160.923 364.123 160.346C365.205 159.769 366.477 159.46 367.779 159.46H174.006C175.307 159.46 176.579 159.769 177.661 160.346C178.743 160.923 179.586 161.744 180.084 162.704C180.582 163.664 180.713 164.72 180.459 165.739C180.205 166.758 179.578 167.695 178.658 168.429C177.738 169.164 176.566 169.664 175.289 169.867C174.013 170.07 172.69 169.966 171.488 169.568C170.285 169.171 169.258 168.497 168.535 167.633C167.812 166.769 167.426 165.753 167.426 164.714C167.426 163.321 168.119 161.985 169.353 160.999C170.587 160.014 172.261 159.46 174.006 159.46H158.734V277.477H381.019V159.46H367.779C369.524 159.46 371.197 160.014 372.431 160.999C373.665 161.985 374.358 163.321 374.358 164.714Z" fill="#2E353A"/>
<path d="M174.006 103.306C172.115 103.309 170.267 103.76 168.697 104.601C167.127 105.442 165.904 106.636 165.183 108.032C164.463 109.428 164.276 110.963 164.647 112.444C165.019 113.924 165.931 115.283 167.27 116.35C168.608 117.416 170.313 118.142 172.167 118.436C174.022 118.729 175.944 118.577 177.691 117.998C179.437 117.42 180.93 116.441 181.98 115.185C183.03 113.93 183.591 112.454 183.591 110.944C183.591 109.939 183.343 108.945 182.861 108.017C182.379 107.089 181.672 106.247 180.782 105.537C179.892 104.828 178.835 104.266 177.672 103.883C176.509 103.5 175.263 103.304 174.006 103.306ZM174.006 116.035C172.745 116.032 171.514 115.731 170.469 115.169C169.423 114.608 168.608 113.812 168.129 112.881C167.649 111.95 167.526 110.927 167.774 109.94C168.023 108.954 168.632 108.048 169.524 107.338C170.417 106.627 171.553 106.144 172.789 105.949C174.026 105.754 175.307 105.855 176.471 106.241C177.635 106.627 178.629 107.28 179.329 108.117C180.029 108.954 180.402 109.937 180.402 110.944C180.408 111.617 180.246 112.285 179.927 112.908C179.608 113.532 179.138 114.099 178.543 114.576C177.949 115.054 177.242 115.433 176.463 115.692C175.684 115.951 174.849 116.084 174.006 116.084V116.035Z" fill="white" stroke="#2E353A" stroke-width="0.916642" stroke-linecap="round" stroke-linejoin="round"/>
<path d="M174.005 121.646C172.109 121.646 170.255 122.095 168.678 122.937C167.101 123.778 165.873 124.975 165.148 126.374C164.423 127.774 164.234 129.313 164.606 130.798C164.977 132.283 165.892 133.647 167.235 134.717C168.577 135.787 170.287 136.514 172.148 136.808C174.008 137.101 175.936 136.947 177.687 136.366C179.439 135.784 180.934 134.8 181.985 133.54C183.036 132.279 183.594 130.797 183.59 129.283C183.59 128.279 183.342 127.284 182.86 126.357C182.378 125.429 181.672 124.586 180.782 123.877C179.891 123.167 178.835 122.605 177.672 122.222C176.509 121.839 175.263 121.643 174.005 121.646ZM174.005 134.391C172.74 134.391 171.503 134.091 170.451 133.53C169.399 132.969 168.58 132.171 168.095 131.238C167.611 130.304 167.485 129.277 167.731 128.287C167.978 127.296 168.587 126.386 169.482 125.671C170.377 124.957 171.516 124.47 172.757 124.273C173.998 124.076 175.284 124.177 176.453 124.564C177.622 124.951 178.621 125.605 179.324 126.445C180.027 127.285 180.402 128.273 180.402 129.283C180.402 130.638 179.728 131.937 178.529 132.895C177.329 133.853 175.702 134.391 174.005 134.391Z" fill="white" stroke="#2E353A" stroke-width="0.916642" stroke-linecap="round" stroke-linejoin="round"/>
<path d="M174.006 137.812C172.115 137.815 170.267 138.266 168.697 139.107C167.127 139.948 165.904 141.142 165.183 142.538C164.463 143.934 164.276 145.469 164.647 146.949C165.019 148.43 165.931 149.789 167.27 150.856C168.608 151.922 170.313 152.648 172.167 152.941C174.022 153.235 175.944 153.083 177.691 152.504C179.437 151.926 180.93 150.947 181.98 149.691C183.03 148.435 183.591 146.959 183.591 145.45C183.591 144.445 183.343 143.451 182.861 142.523C182.379 141.595 181.672 140.753 180.782 140.043C179.892 139.334 178.835 138.772 177.672 138.389C176.509 138.006 175.263 137.81 174.006 137.812ZM174.006 150.541C172.745 150.538 171.514 150.237 170.469 149.675C169.423 149.114 168.608 148.317 168.129 147.387C167.649 146.456 167.526 145.433 167.774 144.446C168.023 143.46 168.632 142.554 169.524 141.843C170.417 141.133 171.553 140.65 172.789 140.455C174.026 140.259 175.307 140.361 176.471 140.747C177.635 141.133 178.629 141.785 179.329 142.622C180.029 143.459 180.402 144.443 180.402 145.45C180.397 146.801 179.721 148.096 178.522 149.051C177.323 150.005 175.699 150.541 174.006 150.541Z" fill="white" stroke="#2E353A" stroke-width="0.916642" stroke-linecap="round" stroke-linejoin="round"/>
<path d="M174.005 128.456C173.558 128.456 173.129 128.314 172.813 128.062C172.497 127.81 172.32 127.467 172.32 127.11V114.511C172.32 114.154 172.497 113.812 172.813 113.559C173.129 113.307 173.558 113.165 174.005 113.165C174.454 113.165 174.885 113.306 175.204 113.558C175.524 113.81 175.706 114.152 175.711 114.511V127.11C175.706 127.469 175.524 127.811 175.204 128.063C174.885 128.315 174.454 128.456 174.005 128.456Z" fill="white" stroke="#2E353A" stroke-width="0.916642" stroke-linecap="round" stroke-linejoin="round"/>
<path d="M174.005 145.791C173.558 145.791 173.129 145.649 172.813 145.397C172.497 145.145 172.32 144.802 172.32 144.445V131.846C172.32 131.489 172.497 131.147 172.813 130.894C173.129 130.642 173.558 130.5 174.005 130.5C174.454 130.5 174.885 130.641 175.204 130.893C175.524 131.145 175.706 131.487 175.711 131.846V144.445C175.706 144.804 175.524 145.146 175.204 145.398C174.885 145.65 174.454 145.791 174.005 145.791Z" fill="white" stroke="#2E353A" stroke-width="0.916642" stroke-linecap="round" stroke-linejoin="round"/>
<path d="M174.005 163.157C173.558 163.157 173.129 163.016 172.813 162.763C172.497 162.511 172.32 162.168 172.32 161.812V149.212C172.32 149.035 172.363 148.86 172.448 148.697C172.533 148.534 172.657 148.385 172.813 148.26C172.97 148.135 173.156 148.036 173.36 147.969C173.565 147.901 173.784 147.866 174.005 147.866C174.454 147.866 174.885 148.007 175.204 148.259C175.524 148.511 175.706 148.854 175.711 149.212V161.812C175.706 162.17 175.524 162.512 175.204 162.764C174.885 163.016 174.454 163.157 174.005 163.157Z" fill="white" stroke="#2E353A" stroke-width="0.916642" stroke-linecap="round" stroke-linejoin="round"/>
<path d="M367.778 103.306C365.888 103.309 364.04 103.76 362.47 104.601C360.9 105.442 359.677 106.636 358.956 108.032C358.235 109.428 358.049 110.963 358.42 112.444C358.792 113.924 359.704 115.283 361.043 116.35C362.381 117.416 364.085 118.142 365.94 118.436C367.795 118.729 369.717 118.577 371.464 117.998C373.21 117.42 374.703 116.441 375.753 115.185C376.803 113.93 377.363 112.454 377.363 110.944C377.363 109.939 377.115 108.945 376.633 108.017C376.152 107.089 375.445 106.247 374.555 105.537C373.664 104.828 372.608 104.266 371.445 103.883C370.282 103.5 369.036 103.304 367.778 103.306ZM367.778 116.035C366.518 116.032 365.287 115.731 364.241 115.169C363.195 114.608 362.381 113.812 361.902 112.881C361.422 111.95 361.299 110.927 361.547 109.94C361.796 108.954 362.404 108.048 363.297 107.338C364.19 106.627 365.326 106.144 366.562 105.949C367.799 105.754 369.08 105.855 370.244 106.241C371.408 106.627 372.402 107.28 373.102 108.117C373.802 108.954 374.175 109.937 374.175 110.944C374.181 111.617 374.019 112.285 373.7 112.908C373.381 113.532 372.911 114.099 372.316 114.576C371.722 115.054 371.015 115.433 370.236 115.692C369.457 115.951 368.622 116.084 367.778 116.084V116.035Z" fill="white" stroke="#2E353A" stroke-width="0.916642" stroke-linecap="round" stroke-linejoin="round"/>
<path d="M367.779 121.646C365.882 121.646 364.028 122.095 362.451 122.937C360.874 123.778 359.646 124.975 358.921 126.374C358.196 127.774 358.008 129.313 358.379 130.798C358.751 132.283 359.665 133.647 361.008 134.717C362.351 135.787 364.06 136.514 365.921 136.808C367.782 137.101 369.71 136.947 371.461 136.366C373.212 135.784 374.707 134.8 375.758 133.54C376.809 132.279 377.368 130.797 377.364 129.283C377.364 128.279 377.116 127.284 376.634 126.357C376.152 125.429 375.445 124.586 374.555 123.877C373.665 123.167 372.608 122.605 371.445 122.222C370.282 121.839 369.036 121.643 367.779 121.646ZM367.779 134.391C366.513 134.391 365.277 134.091 364.225 133.53C363.173 132.969 362.353 132.171 361.869 131.238C361.384 130.304 361.258 129.277 361.505 128.287C361.751 127.296 362.361 126.386 363.255 125.671C364.15 124.957 365.29 124.47 366.531 124.273C367.771 124.076 369.058 124.177 370.226 124.564C371.395 124.951 372.394 125.605 373.097 126.445C373.8 127.285 374.175 128.273 374.175 129.283C374.175 129.954 374.01 130.618 373.688 131.238C373.367 131.857 372.896 132.421 372.302 132.895C371.708 133.369 371.003 133.745 370.226 134.002C369.45 134.259 368.619 134.391 367.779 134.391Z" fill="white" stroke="#2E353A" stroke-width="0.916642" stroke-linecap="round" stroke-linejoin="round"/>
<path d="M367.778 137.812C365.888 137.815 364.04 138.266 362.47 139.107C360.9 139.948 359.677 141.142 358.956 142.538C358.235 143.934 358.049 145.469 358.42 146.949C358.792 148.43 359.704 149.789 361.043 150.856C362.381 151.922 364.085 152.648 365.94 152.941C367.795 153.235 369.717 153.083 371.464 152.504C373.21 151.926 374.703 150.947 375.753 149.691C376.803 148.435 377.363 146.959 377.363 145.45C377.363 144.445 377.115 143.451 376.633 142.523C376.152 141.595 375.445 140.753 374.555 140.043C373.664 139.334 372.608 138.772 371.445 138.389C370.282 138.006 369.036 137.81 367.778 137.812ZM367.778 150.541C366.518 150.538 365.287 150.237 364.241 149.675C363.195 149.114 362.381 148.317 361.902 147.387C361.422 146.456 361.299 145.433 361.547 144.446C361.796 143.46 362.404 142.554 363.297 141.843C364.19 141.133 365.326 140.65 366.562 140.455C367.799 140.259 369.08 140.361 370.244 140.747C371.408 141.133 372.402 141.785 373.102 142.622C373.802 143.459 374.175 144.443 374.175 145.45C374.17 146.801 373.493 148.096 372.294 149.051C371.095 150.005 369.471 150.541 367.778 150.541Z" fill="white" stroke="#2E353A" stroke-width="0.916642" stroke-linecap="round" stroke-linejoin="round"/>
<path d="M367.779 128.456C367.332 128.456 366.903 128.314 366.587 128.062C366.271 127.81 366.093 127.467 366.093 127.11V114.511C366.093 114.154 366.271 113.812 366.587 113.559C366.903 113.307 367.332 113.165 367.779 113.165C368.228 113.165 368.658 113.306 368.978 113.558C369.297 113.81 369.479 114.152 369.485 114.511V127.11C369.479 127.469 369.297 127.811 368.978 128.063C368.658 128.315 368.228 128.456 367.779 128.456Z" fill="white" stroke="#2E353A" stroke-width="0.916642" stroke-linecap="round" stroke-linejoin="round"/>
<path d="M367.779 145.791C367.332 145.791 366.903 145.649 366.587 145.397C366.271 145.145 366.093 144.802 366.093 144.445V131.846C366.093 131.489 366.271 131.147 366.587 130.894C366.903 130.642 367.332 130.5 367.779 130.5C368.228 130.5 368.658 130.641 368.978 130.893C369.297 131.145 369.479 131.487 369.485 131.846V144.445C369.479 144.804 369.297 145.146 368.978 145.398C368.658 145.65 368.228 145.791 367.779 145.791Z" fill="white" stroke="#2E353A" stroke-width="0.916642" stroke-linecap="round" stroke-linejoin="round"/>
<path d="M367.779 163.157C367.332 163.157 366.903 163.016 366.587 162.763C366.271 162.511 366.093 162.168 366.093 161.812V149.212C366.093 149.035 366.137 148.86 366.221 148.697C366.306 148.534 366.43 148.385 366.587 148.26C366.743 148.135 366.929 148.036 367.134 147.969C367.338 147.901 367.557 147.866 367.779 147.866C368.228 147.866 368.658 148.007 368.978 148.259C369.297 148.511 369.479 148.854 369.485 149.212V161.812C369.479 162.17 369.297 162.512 368.978 162.764C368.658 163.016 368.228 163.157 367.779 163.157Z" fill="white" stroke="#2E353A" stroke-width="0.916642" stroke-linecap="round" stroke-linejoin="round"/>
<path d="M417.247 107.344H45.1349L33.4378 81.5288H442.936L417.247 107.344Z" fill="#2E353A" stroke="#2E353A" stroke-width="0.887535" stroke-linecap="round" stroke-linejoin="round"/>
<path d="M407.764 107.344H35.6514L23.9544 81.5288H433.473L407.764 107.344Z" fill="white" stroke="#2E353A" stroke-width="0.887535" stroke-linecap="round" stroke-linejoin="round"/>
<path d="M104.717 517.4H74.2765L83.4757 10.002H88.8775L104.717 27.9525V517.4Z" fill="#2E353A" stroke="#2E353A" stroke-width="0.887535" stroke-linecap="round" stroke-linejoin="round"/>
<path d="M99.2946 517.4H68.8538V27.9525L83.4751 10.002L99.2946 27.9525V517.4Z" fill="white" stroke="#2E353A" stroke-width="0.887535" stroke-linecap="round" stroke-linejoin="round"/>
<path d="M74.2765 517.4V486.186" stroke="#2E353A" stroke-width="0.887535" stroke-linecap="round" stroke-linejoin="round"/>
<path d="M79.5967 517.401V403.39" stroke="#2E353A" stroke-width="0.887535" stroke-linecap="round" stroke-linejoin="round"/>
<path d="M74.2765 481.451V470.1" stroke="#2E353A" stroke-width="0.887535" stroke-linecap="round" stroke-linejoin="round"/>
<path d="M89.4864 316.442V305.091" stroke="#2E353A" stroke-width="0.887535" stroke-linecap="round" stroke-linejoin="round"/>
<path d="M74.2765 32.8015V21.4507" stroke="#2E353A" stroke-width="0.887535" stroke-linecap="round" stroke-linejoin="round"/>
<path d="M74.2765 47.7517V36.4009" stroke="#2E353A" stroke-width="0.887535" stroke-linecap="round" stroke-linejoin="round"/>
<path d="M89.4864 388.406V329.187" stroke="#2E353A" stroke-width="0.887535" stroke-linecap="round" stroke-linejoin="round"/>
<path d="M26.9398 86.9126H37.6011" stroke="#2E353A" stroke-width="0.887535" stroke-linecap="round" stroke-linejoin="round"/>
<path d="M31.6709 91.1772H57.1566" stroke="#2E353A" stroke-width="0.887535" stroke-linecap="round" stroke-linejoin="round"/>
<path d="M126.405 91.1772H151.871" stroke="#2E353A" stroke-width="0.887535" stroke-linecap="round" stroke-linejoin="round"/>
<path d="M139.137 95.9116H148.093" stroke="#2E353A" stroke-width="0.887535" stroke-linecap="round" stroke-linejoin="round"/>
<path d="M184.362 95.9116H237.527" stroke="#2E353A" stroke-width="0.887535" stroke-linecap="round" stroke-linejoin="round"/>
<path d="M419.725 95.9116H410.83" stroke="#2E353A" stroke-width="0.887535" stroke-linecap="round" stroke-linejoin="round"/>
<path d="M415.562 99.2197H385.365" stroke="#2E353A" stroke-width="0.887535" stroke-linecap="round" stroke-linejoin="round"/>
<path d="M7.0585 524.908H26.98C26.98 524.908 -9.1874 499.158 7.0585 501.785C23.3044 504.412 37.5196 513.557 37.5196 513.557C37.5196 513.557 18.3088 499.126 31.5898 501.753C44.8708 504.38 44.3225 508.725 44.3225 508.725C44.3225 508.725 45.3582 477.543 57.0756 486.153C63.8778 490.902 68.0773 497.591 68.7726 504.785C68.7726 504.785 93.8116 480.056 99.2337 481.418C104.656 482.78 104.656 497.91 104.656 497.91C104.656 497.91 146.712 470.538 139.077 486.153C131.441 501.769 126.344 507.639 126.344 507.639C126.344 507.639 146.083 493.71 143.565 501.753C142.489 505.634 140.988 509.433 139.077 513.103C139.077 513.103 168.766 520.53 164.38 520.514C159.993 520.498 151.809 525.006 151.809 525.006C151.809 525.006 201.948 518.519 192.424 525.006C182.9 531.492 104.615 530.405 104.615 530.405C104.615 530.405 142.854 537.881 126.405 537.881C109.956 537.881 84.0844 532.465 84.0844 532.465C84.0844 532.465 45.5004 538.951 31.671 537.881C17.8417 536.81 57.1568 532.465 57.1568 532.465C57.1568 532.465 -17.6556 532.53 7.0585 524.908Z" fill="#2E353A" stroke="#2E353A" stroke-width="0.916642" stroke-linecap="round" stroke-linejoin="round"/>
</g>
</svg>
