<svg width="48" height="27" viewBox="0 0 48 27" fill="none" xmlns="http://www.w3.org/2000/svg">
<g opacity="0.4">
<path d="M10.9325 26.8785C10.8431 26.8797 10.7562 26.8487 10.6877 26.7912C10.6192 26.7336 10.5737 26.6534 10.5594 26.5652L9.41029 18.2675L1.12759 16.7752C1.04422 16.7619 0.967841 16.7207 0.910916 16.6583C0.853991 16.596 0.819878 16.5161 0.814181 16.4319C0.810978 16.3448 0.837226 16.2591 0.888668 16.1887C0.94011 16.1183 1.01375 16.0673 1.09774 16.0439L9.38043 13.8352V2.91098C9.38043 2.81203 9.41975 2.71713 9.48972 2.64716C9.55968 2.5772 9.65458 2.53788 9.75353 2.53788C9.85248 2.53788 9.94737 2.5772 10.0173 2.64716C10.0873 2.71713 10.1266 2.81203 10.1266 2.91098V14.1187C10.1257 14.2014 10.0974 14.2814 10.0461 14.3463C9.99475 14.4111 9.92334 14.4571 9.84307 14.4769L2.91844 16.3275L9.81321 17.5363C9.89138 17.5463 9.96372 17.5829 10.0181 17.64C10.0724 17.6971 10.1055 17.7711 10.1117 17.8497L11.2459 26.0727L47.1674 23.9535V1.0455H12.7084C12.6095 1.0455 12.5146 1.00621 12.4446 0.936246C12.3746 0.866277 12.3353 0.771361 12.3353 0.672411C12.3353 0.57346 12.3746 0.478567 12.4446 0.408599C12.5146 0.33863 12.6095 0.299316 12.7084 0.299316H47.5405C47.6383 0.30301 47.7311 0.343513 47.8002 0.412698C47.8694 0.481882 47.9099 0.574639 47.9136 0.672411V24.3415C47.9102 24.4369 47.8718 24.5276 47.8057 24.5964C47.7397 24.6653 47.6506 24.7073 47.5554 24.7146L10.9474 26.8785H10.9325Z" fill="white"/>
</g>
</svg>
