<svg width="39" height="27" viewBox="0 0 39 27" fill="none" xmlns="http://www.w3.org/2000/svg">
<g opacity="0.4">
<path d="M24.3022 26.4289C24.2406 26.4283 24.1801 26.4132 24.1256 26.3846C24.0711 26.3561 24.0242 26.315 23.9887 26.2648L19.5116 19.6088C19.4837 19.5678 19.4643 19.5216 19.4544 19.473C19.4445 19.4244 19.4445 19.3743 19.4542 19.3257C19.4639 19.277 19.4833 19.2308 19.511 19.1897C19.5388 19.1487 19.5745 19.1136 19.6161 19.0864C19.6559 19.0589 19.7009 19.0397 19.7483 19.03C19.7958 19.0203 19.8447 19.0204 19.8921 19.0301C19.9396 19.0399 19.9845 19.0592 20.0243 19.0868C20.064 19.1144 20.0978 19.1499 20.1235 19.1909L24.0484 25.0261L24.8096 19.3401C24.8226 19.2641 24.8579 19.1938 24.911 19.1379C24.9642 19.0821 25.0328 19.0434 25.108 19.0267C25.1976 19.0267 34.6145 16.8927 37.3306 11.7738C37.778 10.9137 38.0251 9.96349 38.0535 8.99438C38.082 8.02526 37.891 7.06225 37.4948 6.17736C35.3308 0.760033 22.571 -0.135393 12.4377 2.44642C5.3788 4.23727 1.23 7.31158 1.60309 10.4754C2.67761 19.5043 8.69188 19.0417 8.94559 19.0267C8.99382 19.0205 9.0428 19.0242 9.08957 19.0375C9.13634 19.0509 9.17992 19.0736 9.21762 19.1043C9.25532 19.135 9.28636 19.1731 9.30887 19.2162C9.33137 19.2593 9.34488 19.3066 9.34854 19.3551C9.35725 19.4534 9.32813 19.5514 9.26713 19.629C9.20613 19.7066 9.11783 19.7581 9.02021 19.7729C8.94559 19.7729 2.03588 20.34 0.871822 10.565C0.439032 6.9534 4.6923 3.64034 12.2437 1.71517C21.4815 -0.642787 35.6293 -0.493553 38.1812 5.90874C38.6212 6.89069 38.8323 7.95973 38.7987 9.03521C38.7651 10.1107 38.4876 11.1645 37.9872 12.117C35.3457 17.1165 27.1078 19.3103 25.5259 19.6983L24.6603 26.1006C24.6484 26.1747 24.6153 26.2437 24.5649 26.2993C24.5146 26.3549 24.4493 26.3948 24.3768 26.414L24.3022 26.4289Z" fill="white"/>
</g>
</svg>
