<svg width="37" height="32" viewBox="0 0 37 32" fill="none" xmlns="http://www.w3.org/2000/svg">
<g opacity="0.4">
<path d="M30.9644 31.6081C30.9049 31.6077 30.8465 31.5925 30.7944 31.5638C30.7423 31.5351 30.6981 31.494 30.6659 31.444L24.8755 23.5791L3.60911 26.161C3.56162 26.1671 3.51338 26.1637 3.46724 26.1509C3.4211 26.138 3.37801 26.1161 3.3405 26.0863C3.30036 26.057 3.26744 26.0189 3.24417 25.9749C3.2209 25.931 3.2079 25.8823 3.20619 25.8326L0.519926 3.25297C0.51257 3.20312 0.515391 3.1523 0.528215 3.10356C0.54104 3.05483 0.563585 3.00919 0.594527 2.96941C0.666641 2.89602 0.761156 2.84876 0.863144 2.83511L33.5761 0.268216C33.6742 0.263793 33.7704 0.29676 33.8451 0.360465C33.9199 0.424169 33.9678 0.513862 33.979 0.611456C33.9834 0.709596 33.9505 0.805768 33.8868 0.880552C33.8231 0.955335 33.7334 1.00317 33.6358 1.0144L1.25118 3.53653L3.83301 25.2954L24.9352 22.7434C25.0005 22.7358 25.0666 22.7457 25.1269 22.7719C25.1872 22.7981 25.2395 22.8398 25.2785 22.8927L29.7556 28.8622L27.6364 22.8927C27.6149 22.8458 27.6038 22.7949 27.6038 22.7434C27.6038 22.6919 27.6149 22.641 27.6364 22.5942C27.6632 22.5463 27.6996 22.5043 27.7432 22.471C27.7868 22.4376 27.8368 22.4135 27.8901 22.4002L35.7848 20.9078L33.785 4.74535C33.7763 4.647 33.8054 4.54902 33.8664 4.47138C33.9274 4.39374 34.0157 4.34229 34.1133 4.32748C34.1624 4.32124 34.2122 4.32481 34.2598 4.33798C34.3075 4.35115 34.3521 4.37367 34.3909 4.40422C34.4298 4.43477 34.4622 4.47273 34.4863 4.51592C34.5104 4.55911 34.5256 4.60667 34.5312 4.65581L36.5758 21.1615C36.5817 21.257 36.5533 21.3515 36.4959 21.4281C36.4385 21.5046 36.3557 21.5583 36.2623 21.5794L28.4572 23.0717L31.2927 30.9963C31.3216 31.0821 31.3195 31.1754 31.2868 31.2599C31.2541 31.3444 31.1928 31.4148 31.1137 31.4589C31.0781 31.521 31.0265 31.5725 30.9644 31.6081Z" fill="white"/>
</g>
</svg>
