<svg width="42" height="27" viewBox="0 0 42 27" fill="none" xmlns="http://www.w3.org/2000/svg">
<g opacity="0.4">
<path d="M13.5816 26.7727C13.5274 26.7723 13.474 26.76 13.425 26.7368C13.3761 26.7136 13.3327 26.68 13.2981 26.6384C13.2484 26.5715 13.2216 26.4904 13.2216 26.4071C13.2216 26.3238 13.2484 26.2427 13.2981 26.1758L16.9245 21.3255L3.88116 21.8031C3.83216 21.8051 3.78323 21.7974 3.7372 21.7805C3.69116 21.7636 3.64892 21.7377 3.61288 21.7045C3.57685 21.6712 3.54772 21.6312 3.52717 21.5866C3.50662 21.5421 3.49507 21.494 3.49315 21.445C3.49286 21.347 3.5296 21.2526 3.59603 21.1806C3.66246 21.1087 3.75366 21.0645 3.85131 21.0569L17.6856 20.5495C17.755 20.5482 17.8234 20.5655 17.8837 20.5997C17.9441 20.6338 17.9942 20.6835 18.0289 20.7435C18.0616 20.8057 18.0786 20.8748 18.0786 20.945C18.0786 21.0152 18.0616 21.0843 18.0289 21.1465L14.8203 25.4296L21.924 22.1165C21.9727 22.1024 22.0245 22.1024 22.0732 22.1165H40.6086V1.31276C25.5952 1.11875 3.29913 0.969513 1.44858 1.31276C1.16503 2.26788 2.25448 8.41649 3.49315 13.9681C3.50415 14.0162 3.50552 14.0659 3.4972 14.1144C3.48888 14.163 3.47103 14.2094 3.44467 14.2511C3.41831 14.2927 3.38396 14.3287 3.34361 14.357C3.30326 14.3852 3.25772 14.4053 3.20959 14.4159C3.16249 14.4267 3.11366 14.428 3.06606 14.4195C3.01847 14.411 2.9731 14.393 2.93267 14.3665C2.89223 14.34 2.85757 14.3056 2.83079 14.2653C2.804 14.2251 2.78562 14.1798 2.77679 14.1323C0.86655 5.61082 0.284526 1.074 1.03071 0.700902C1.7769 0.327808 31.8483 0.536741 40.9966 0.700902C41.0929 0.704759 41.184 0.745753 41.2508 0.815308C41.3176 0.884863 41.3548 0.977578 41.3547 1.074V22.5941C41.3547 22.693 41.3154 22.7879 41.2455 22.8579C41.1755 22.9279 41.0806 22.9672 40.9817 22.9672H22.1329L13.7607 26.8772L13.5816 26.7727Z" fill="white"/>
</g>
</svg>
