<svg width="45" height="43" viewBox="0 0 45 43" fill="none" xmlns="http://www.w3.org/2000/svg">
<g opacity="0.4">
<path d="M22.6269 42.1154C13.5234 42.1154 3.13641 38.3994 0.823223 31.2807C-2.96741 19.6253 10.2252 12.5663 12.6279 11.4023L6.74796 0.821315C6.71005 0.745061 6.69828 0.658462 6.71446 0.574856C6.73065 0.491249 6.77388 0.415284 6.8375 0.358682C6.90337 0.306632 6.98489 0.27832 7.06884 0.27832C7.15279 0.27832 7.23429 0.306632 7.30016 0.358682L17.4483 7.68626C17.4962 7.71079 17.5383 7.74541 17.5716 7.78773C17.6049 7.83005 17.6286 7.87906 17.6411 7.93142C17.6537 7.98378 17.6548 8.03824 17.6443 8.09105C17.6338 8.14386 17.612 8.19377 17.5804 8.23736C17.5488 8.28095 17.5081 8.31718 17.4612 8.34357C17.4143 8.36996 17.3622 8.38589 17.3085 8.39025C17.2548 8.3946 17.2009 8.38728 17.1503 8.3688C17.0997 8.35032 17.0537 8.32112 17.0155 8.2832L8.22542 1.9406L13.4786 11.4023C13.5011 11.4488 13.5127 11.4998 13.5127 11.5515C13.5127 11.6032 13.5011 11.6542 13.4786 11.7008C13.4447 11.7973 13.3753 11.8773 13.2846 11.9246C13.1204 11.9246 -2.41523 18.9686 1.50973 31.0718C3.43489 36.9667 12.4787 41.3841 22.6119 41.3841H22.7612C32.984 41.3841 40.4458 37.0115 42.7143 29.8033C43.3367 28.2045 43.5667 26.4797 43.3849 24.7737C43.2031 23.0677 42.6149 21.4301 41.6696 19.9984C36.4911 12.6409 21.433 11.9545 21.2837 11.9545C21.2347 11.9525 21.1866 11.941 21.142 11.9204C21.0975 11.8999 21.0575 11.8707 21.0242 11.8347C20.9909 11.7987 20.9651 11.7564 20.9482 11.7104C20.9312 11.6644 20.9235 11.6154 20.9255 11.5664C20.9254 11.5168 20.9355 11.4676 20.9554 11.4221C20.9752 11.3766 21.0043 11.3357 21.0408 11.302C21.0773 11.2683 21.1204 11.2426 21.1673 11.2265C21.2143 11.2103 21.2641 11.2041 21.3136 11.2083C21.9404 11.2083 36.8791 11.9097 42.2815 19.5656C43.2933 21.0887 43.9245 22.8327 44.1219 24.6506C44.3193 26.4686 44.0771 28.3074 43.4157 30.0122C41.0428 37.5487 33.3272 42.0557 22.7761 42.1154H22.6269Z" fill="white"/>
</g>
</svg>
