<svg width="60" height="60" viewBox="0 0 60 60" fill="none" xmlns="http://www.w3.org/2000/svg">
<circle cx="30" cy="29.9998" r="29" stroke="#0078FF" stroke-width="2"/>
<path d="M38.75 28.7494H23.925L28.4625 23.2994C28.6747 23.0441 28.7768 22.715 28.7463 22.3845C28.7158 22.0539 28.5553 21.749 28.3 21.5369C28.0447 21.3247 27.7156 21.2226 27.3851 21.2531C27.0546 21.2836 26.7497 21.4441 26.5375 21.6994L20.2875 29.1994C20.2455 29.259 20.2078 29.3217 20.175 29.3869C20.175 29.4494 20.175 29.4869 20.0875 29.5494C20.0308 29.6927 20.0012 29.8453 20 29.9994C20.0012 30.1535 20.0308 30.306 20.0875 30.4494C20.0875 30.5119 20.0875 30.5494 20.175 30.6119C20.2078 30.677 20.2455 30.7397 20.2875 30.7994L26.5375 38.2994C26.655 38.4405 26.8022 38.5539 26.9686 38.6317C27.1349 38.7095 27.3164 38.7497 27.5 38.7494C27.7921 38.7499 28.0751 38.6482 28.3 38.4619C28.4266 38.3569 28.5312 38.2281 28.6079 38.0826C28.6846 37.9372 28.7318 37.7781 28.7469 37.6143C28.762 37.4506 28.7447 37.2855 28.6959 37.1285C28.6471 36.9715 28.5678 36.8257 28.4625 36.6994L23.925 31.2494H38.75C39.0815 31.2494 39.3995 31.1177 39.6339 30.8833C39.8683 30.6488 40 30.3309 40 29.9994C40 29.6678 39.8683 29.3499 39.6339 29.1155C39.3995 28.8811 39.0815 28.7494 38.75 28.7494Z" fill="#0078FF"/>
</svg>
