<svg width="60" height="60" viewBox="0 0 60 60" fill="none" xmlns="http://www.w3.org/2000/svg">
<circle cx="30" cy="30" r="29" transform="matrix(-1 0 0 1 60 -0.000244141)" stroke="#0078FF" stroke-width="2"/>
<path d="M21.25 28.7494H36.075L31.5375 23.2994C31.3253 23.0441 31.2232 22.715 31.2537 22.3845C31.2842 22.0539 31.4447 21.749 31.7 21.5369C31.9553 21.3247 32.2844 21.2226 32.6149 21.2531C32.9454 21.2836 33.2503 21.4441 33.4625 21.6994L39.7125 29.1994C39.7545 29.259 39.7922 29.3217 39.825 29.3869C39.825 29.4494 39.825 29.4869 39.9125 29.5494C39.9692 29.6927 39.9988 29.8453 40 29.9994C39.9988 30.1535 39.9692 30.306 39.9125 30.4494C39.9125 30.5119 39.9125 30.5494 39.825 30.6119C39.7922 30.677 39.7545 30.7397 39.7125 30.7994L33.4625 38.2994C33.345 38.4405 33.1978 38.5539 33.0314 38.6317C32.8651 38.7095 32.6836 38.7497 32.5 38.7494C32.2079 38.7499 31.9249 38.6482 31.7 38.4619C31.5734 38.3569 31.4688 38.2281 31.3921 38.0826C31.3154 37.9372 31.2682 37.7781 31.2531 37.6143C31.238 37.4506 31.2553 37.2855 31.3041 37.1285C31.3529 36.9715 31.4322 36.8257 31.5375 36.6994L36.075 31.2494H21.25C20.9185 31.2494 20.6005 31.1177 20.3661 30.8833C20.1317 30.6488 20 30.3309 20 29.9994C20 29.6678 20.1317 29.3499 20.3661 29.1155C20.6005 28.8811 20.9185 28.7494 21.25 28.7494Z" fill="#0078FF"/>
</svg>
